<svg width="128" height="41" viewBox="0 0 128 41" fill="none" xmlns="http://www.w3.org/2000/svg">
<path d="M124 40.0938H4C1.8 40.0938 0 38.2938 0 36.0938V4.09375C0 1.89375 1.8 0.09375 4 0.09375H124C126.2 0.09375 128 1.89375 128 4.09375V36.0938C128 38.2938 126.2 40.0938 124 40.0938Z" fill="black"/>
<path d="M27 19.8938C27 16.7938 29.6 15.2938 29.7 15.1938C28.2 13.0938 26 12.7938 25.2 12.6938C23.3 12.4938 21.4 13.7938 20.5 13.7938C19.5 13.7938 18 12.6938 16.4 12.6938C14.3 12.6938 12.4 13.8938 11.3 15.7938C9.10001 19.5938 10.7 25.1938 12.8 28.2938C13.9 29.7938 15.1 31.4938 16.7 31.3938C18.3 31.2938 18.9 30.3938 20.8 30.3938C22.7 30.3938 23.2 31.3938 24.9 31.3938C26.6 31.3938 27.7 29.8938 28.7 28.3938C29.9 26.6938 30.4 24.9938 30.4 24.8938C30.3 24.7938 27 23.5938 27 19.8938Z" fill="white"/>
<path d="M23.9001 10.6943C24.7001 9.59434 25.3001 8.19434 25.2001 6.69434C24.0001 6.79434 22.4001 7.49434 21.6001 8.59434C20.8001 9.49434 20.1001 10.9943 20.3001 12.3943C21.6001 12.4943 23.0001 11.6943 23.9001 10.6943Z" fill="white"/>
<path d="M49.8 31.1939H47.6L46.4 27.3939H42.2L41.1 31.1939H39L43.2 18.2939H45.8L49.8 31.1939ZM46 25.7939L44.9 22.3939C44.8 22.0939 44.6 21.1939 44.2 19.9939C44.1 20.4939 43.9 21.3939 43.6 22.3939L42.5 25.7939H46Z" fill="white"/>
<path d="M60.5 26.4939C60.5 28.0939 60.1 29.2939 59.2 30.2939C58.4 31.0939 57.5 31.4939 56.3 31.4939C55.1 31.4939 54.2 31.0939 53.7 30.1939V35.0939H51.6V25.0939C51.6 24.0939 51.6 23.0939 51.5 21.9939H53.3L53.4 23.4939C54.1 22.3939 55.1 21.7939 56.5 21.7939C57.6 21.7939 58.5 22.1939 59.2 23.0939C60.1 23.8939 60.5 24.9939 60.5 26.4939ZM58.4 26.4939C58.4 25.5939 58.2 24.7939 57.8 24.2939C57.4 23.6939 56.8 23.3939 56 23.3939C55.5 23.3939 55 23.5939 54.6 23.8939C54.2 24.1939 53.9 24.6939 53.8 25.1939C53.7 25.4939 53.7 25.6939 53.7 25.7939V27.3939C53.7 28.0939 53.9 28.5939 54.3 29.0939C54.7 29.5939 55.3 29.7939 55.9 29.7939C56.7 29.7939 57.3 29.4939 57.7 28.8939C58.2 28.2939 58.4 27.4939 58.4 26.4939Z" fill="white"/>
<path d="M71.1992 26.4939C71.1992 28.0939 70.7992 29.2939 69.8992 30.2939C69.0992 31.0939 68.1992 31.4939 66.9992 31.4939C65.7992 31.4939 64.8992 31.0939 64.3992 30.1939V35.0939H62.2992V25.0939C62.2992 24.0939 62.2992 23.0939 62.1992 21.9939H63.9992L64.0992 23.4939C64.7992 22.3939 65.7992 21.7939 67.1992 21.7939C68.2992 21.7939 69.1992 22.1939 69.8992 23.0939C70.7992 23.8939 71.1992 24.9939 71.1992 26.4939ZM69.0992 26.4939C69.0992 25.5939 68.8992 24.7939 68.4992 24.2939C68.0992 23.6939 67.4992 23.3939 66.6992 23.3939C66.1992 23.3939 65.6992 23.5939 65.2992 23.8939C64.8992 24.1939 64.5992 24.6939 64.4992 25.1939C64.3992 25.4939 64.3992 25.6939 64.3992 25.7939V27.3939C64.3992 28.0939 64.5992 28.5939 64.9992 29.0939C65.3992 29.5939 65.9992 29.7939 66.5992 29.7939C67.3992 29.7939 67.9992 29.4939 68.3992 28.8939C68.8992 28.2939 69.0992 27.4939 69.0992 26.4939Z" fill="white"/>
<path d="M83.2008 27.5943C83.2008 28.6943 82.8008 29.5943 82.1008 30.2943C81.3008 31.0943 80.1008 31.3943 78.6008 31.3943C77.2008 31.3943 76.1008 31.0943 75.3008 30.5943L75.8008 28.8943C76.7008 29.3943 77.7008 29.6943 78.8008 29.6943C79.6008 29.6943 80.2008 29.4943 80.6008 29.1943C81.0008 28.7943 81.2008 28.3943 81.2008 27.7943C81.2008 27.2943 81.0008 26.7943 80.7008 26.4943C80.3008 26.0943 79.7008 25.7943 78.9008 25.4943C76.6008 24.6943 75.5008 23.3943 75.5008 21.7943C75.5008 20.6943 75.9008 19.8943 76.7008 19.1943C77.5008 18.4943 78.5008 18.1943 79.9008 18.1943C81.1008 18.1943 82.0008 18.3943 82.8008 18.7943L82.3008 20.4943C81.6008 20.0943 80.8008 19.8943 79.8008 19.8943C79.1008 19.8943 78.5008 20.0943 78.1008 20.3943C77.8008 20.6943 77.6008 21.0943 77.6008 21.5943C77.6008 22.0943 77.8008 22.4943 78.2008 22.8943C78.5008 23.1943 79.2008 23.4943 80.1008 23.8943C81.2008 24.2943 82.0008 24.8943 82.6008 25.4943C82.9008 25.9943 83.2008 26.6943 83.2008 27.5943Z" fill="white"/>
<path d="M90.0008 23.4938H87.7008V27.9938C87.7008 29.0938 88.1008 29.6937 88.9008 29.6937C89.3008 29.6937 89.6008 29.6938 89.8008 29.5938L89.9008 31.1937C89.5008 31.3937 89.0008 31.3937 88.3008 31.3937C87.5008 31.3937 86.8008 31.1937 86.4008 30.6937C85.9008 30.1937 85.7008 29.3937 85.7008 28.1937V23.4938H84.3008V21.8937H85.7008V20.1937L87.7008 19.5938V21.8937H90.0008V23.4938Z" fill="white"/>
<path d="M100.299 26.4943C100.299 27.8943 99.8992 29.0943 99.0992 29.9943C98.1992 30.8943 97.0992 31.3943 95.6992 31.3943C94.2992 31.3943 93.1992 30.8943 92.3992 29.9943C91.5992 29.0943 91.1992 27.9943 91.1992 26.5943C91.1992 25.1943 91.5992 23.9943 92.4992 23.0943C93.2992 22.1943 94.4992 21.6943 95.8992 21.6943C97.2992 21.6943 98.3992 22.1943 99.1992 23.0943C99.8992 23.9943 100.299 25.0943 100.299 26.4943ZM98.0992 26.5943C98.0992 25.6943 97.8992 24.9943 97.4992 24.3943C97.0992 23.6943 96.3992 23.2943 95.5992 23.2943C94.7992 23.2943 94.0992 23.6943 93.6992 24.3943C93.2992 24.9943 93.0992 25.7943 93.0992 26.5943C93.0992 27.4943 93.2992 28.1943 93.6992 28.7943C94.0992 29.4943 94.7992 29.8943 95.5992 29.8943C96.3992 29.8943 96.9992 29.4943 97.4992 28.7943C97.8992 28.1943 98.0992 27.3943 98.0992 26.5943Z" fill="white"/>
<path d="M107 23.6937C106.8 23.6937 106.6 23.5938 106.3 23.5938C105.6 23.5938 105 23.8937 104.6 24.3937C104.3 24.8937 104.1 25.4937 104.1 26.1937V31.0938H102V24.6937C102 23.5937 102 22.6938 101.9 21.7938H103.7L103.8 23.5938H103.9C104.1 22.9937 104.5 22.4938 104.9 22.0938C105.4 21.7937 105.9 21.5938 106.4 21.5938C106.6 21.5938 106.8 21.5938 106.9 21.5938V23.6937H107Z" fill="white"/>
<path d="M116.2 26.0943C116.2 26.4943 116.2 26.7943 116.1 26.9943H109.9C109.9 27.8943 110.2 28.5943 110.8 29.0943C111.3 29.4943 112 29.7943 112.8 29.7943C113.7 29.7943 114.6 29.6943 115.3 29.3943L115.6 30.7943C114.7 31.1943 113.7 31.3943 112.5 31.3943C111.1 31.3943 109.9 30.9943 109.1 30.0943C108.3 29.2943 107.9 28.0943 107.9 26.6943C107.9 25.2943 108.3 24.0943 109 23.1943C109.8 22.1943 110.9 21.6943 112.3 21.6943C113.6 21.6943 114.7 22.1943 115.3 23.1943C116 23.9943 116.2 24.9943 116.2 26.0943ZM114.3 25.5943C114.3 24.9943 114.2 24.4943 113.9 23.9943C113.5 23.3943 113 23.0943 112.3 23.0943C111.6 23.0943 111.1 23.3943 110.7 23.8943C110.4 24.2943 110.2 24.8943 110.1 25.4943H114.3V25.5943Z" fill="white"/>
<path d="M45.3992 10.3936C45.3992 11.4936 45.0992 12.3936 44.3992 12.9936C43.7992 13.4936 42.8992 13.7936 41.6992 13.7936C41.0992 13.7936 40.5992 13.7936 40.1992 13.6936V7.49356C40.6992 7.39356 41.2992 7.39355 41.9992 7.39355C43.0992 7.39355 43.8992 7.59356 44.4992 8.09356C44.9992 8.59356 45.3992 9.39355 45.3992 10.3936ZM44.2992 10.3936C44.2992 9.69355 44.0992 9.09356 43.6992 8.69356C43.2992 8.29356 42.6992 8.09356 41.9992 8.09356C41.6992 8.09356 41.3992 8.09356 41.1992 8.19356V12.8936C41.2992 12.8936 41.5992 12.8936 41.8992 12.8936C42.6992 12.8936 43.2992 12.6936 43.6992 12.2936C44.0992 11.8936 44.2992 11.1936 44.2992 10.3936Z" fill="white"/>
<path d="M51 11.3932C51 12.0932 50.8 12.6932 50.4 13.0932C50 13.5932 49.4 13.7932 48.7 13.7932C48 13.7932 47.5 13.5932 47.1 13.0932C46.7 12.6932 46.5 12.0932 46.5 11.3932C46.5 10.6932 46.7 10.0932 47.1 9.69316C47.5 9.19316 48.1 8.99316 48.8 8.99316C49.5 8.99316 50 9.19316 50.4 9.69316C50.8 10.0932 51 10.6932 51 11.3932ZM50 11.3932C50 10.9932 49.9 10.5932 49.7 10.2932C49.5 9.89317 49.2 9.79317 48.8 9.79317C48.4 9.79317 48.1 9.99317 47.9 10.2932C47.7 10.5932 47.6 10.9932 47.6 11.3932C47.6 11.7932 47.7 12.1932 47.9 12.4932C48.1 12.8932 48.4 12.9932 48.8 12.9932C49.2 12.9932 49.5 12.7932 49.7 12.3932C49.9 12.1932 50 11.7932 50 11.3932Z" fill="white"/>
<path d="M58.7 9.09375L57.3 13.6937H56.4L55.8 11.6938C55.6 11.1938 55.5 10.6938 55.4 10.1938C55.3 10.6938 55.2 11.1938 55 11.6938L54.4 13.6937H53.5L52 9.09375H53L53.5 11.2938C53.6 11.7938 53.7 12.2938 53.8 12.7938C53.9 12.3938 54 11.8938 54.2 11.2938L54.8 9.09375H55.6L56.2 11.1938C56.4 11.6938 56.5 12.1938 56.6 12.6938C56.7 12.1938 56.8 11.6938 56.9 11.1938L57.5 9.09375H58.7Z" fill="white"/>
<path d="M63.9 13.6936H62.9V11.0936C62.9 10.2936 62.6 9.89355 62 9.89355C61.7 9.89355 61.5 9.99356 61.3 10.1936C61.1 10.3936 61 10.6936 61 10.9936V13.6936H60V10.3936C60 9.99355 60 9.59356 60 9.09356H60.9V9.79356C61 9.59356 61.2 9.39356 61.4 9.19356C61.7 8.99356 62 8.89355 62.3 8.89355C62.7 8.89355 63.1 8.99356 63.4 9.29356C63.8 9.59356 63.9 10.0936 63.9 10.7936V13.6936Z" fill="white"/>
<path d="M66.6992 13.6932H65.6992V6.99316H66.6992V13.6932Z" fill="white"/>
<path d="M72.6992 11.3932C72.6992 12.0932 72.4992 12.6932 72.0992 13.0932C71.6992 13.5932 71.0992 13.7932 70.3992 13.7932C69.6992 13.7932 69.1992 13.5932 68.7992 13.0932C68.3992 12.6932 68.1992 12.0932 68.1992 11.3932C68.1992 10.6932 68.3992 10.0932 68.7992 9.69316C69.1992 9.29316 69.7992 8.99316 70.4992 8.99316C71.1992 8.99316 71.6992 9.19316 72.0992 9.69316C72.4992 10.0932 72.6992 10.6932 72.6992 11.3932ZM71.6992 11.3932C71.6992 10.9932 71.5992 10.5932 71.3992 10.2932C71.1992 9.89317 70.8992 9.79317 70.4992 9.79317C70.0992 9.79317 69.7992 9.99317 69.5992 10.2932C69.3992 10.5932 69.2992 10.9932 69.2992 11.3932C69.2992 11.7932 69.3992 12.1932 69.5992 12.4932C69.7992 12.8932 70.0992 12.9932 70.4992 12.9932C70.8992 12.9932 71.1992 12.7932 71.3992 12.3932C71.5992 12.1932 71.6992 11.7932 71.6992 11.3932Z" fill="white"/>
<path d="M77.6004 13.6932H76.7004L76.6004 13.1932C76.3004 13.5932 75.8004 13.7932 75.3004 13.7932C74.9004 13.7932 74.5004 13.6932 74.3004 13.3932C74.1004 13.0932 73.9004 12.7932 73.9004 12.4932C73.9004 11.8932 74.1004 11.4932 74.6004 11.1932C75.1004 10.8932 75.7004 10.7932 76.6004 10.7932V10.6932C76.6004 10.0932 76.3004 9.79317 75.7004 9.79317C75.2004 9.79317 74.9004 9.89316 74.5004 10.0932L74.3004 9.39316C74.7004 9.09316 75.2004 8.99316 75.9004 8.99316C77.1004 8.99316 77.7004 9.59316 77.7004 10.8932V12.5932C77.6004 13.0932 77.6004 13.3932 77.6004 13.6932ZM76.6004 12.0932V11.3932C75.5004 11.3932 74.9004 11.6932 74.9004 12.2932C74.9004 12.4932 75.0004 12.6932 75.1004 12.7932C75.2004 12.8932 75.4004 12.9932 75.6004 12.9932C75.8004 12.9932 76.0004 12.8932 76.2004 12.7932C76.4004 12.6932 76.5004 12.4932 76.6004 12.2932C76.6004 12.2932 76.6004 12.1932 76.6004 12.0932Z" fill="white"/>
<path d="M83.3996 13.6937H82.4996V12.9937C82.1996 13.5937 81.6996 13.7938 80.9996 13.7938C80.3996 13.7938 79.9996 13.5937 79.5996 13.1937C79.1996 12.7937 79.0996 12.1937 79.0996 11.4937C79.0996 10.7937 79.2996 10.1938 79.6996 9.69375C80.0996 9.29375 80.5996 9.09375 81.0996 9.09375C81.6996 9.09375 82.0996 9.29375 82.3996 9.69375V7.09375H83.3996V12.4937C83.3996 12.8937 83.3996 13.2937 83.3996 13.6937ZM82.3996 11.7938V10.9937C82.3996 10.8937 82.3996 10.7938 82.3996 10.6938C82.2996 10.4938 82.1996 10.2938 81.9996 10.0938C81.7996 9.89375 81.5996 9.89375 81.2996 9.89375C80.8996 9.89375 80.5996 10.0937 80.3996 10.3937C80.1996 10.6937 80.0996 11.0938 80.0996 11.5938C80.0996 12.0938 80.1996 12.3938 80.3996 12.6938C80.5996 12.9938 80.8996 13.1937 81.2996 13.1937C81.5996 13.1937 81.8996 13.0938 82.0996 12.7938C82.2996 12.3938 82.3996 12.0938 82.3996 11.7938Z" fill="white"/>
<path d="M92.0996 11.3932C92.0996 12.0932 91.8996 12.6932 91.4996 13.0932C91.0996 13.5932 90.4996 13.7932 89.7996 13.7932C89.0996 13.7932 88.5996 13.5932 88.1996 13.0932C87.7996 12.6932 87.5996 12.0932 87.5996 11.3932C87.5996 10.6932 87.7996 10.0932 88.1996 9.69316C88.5996 9.19316 89.1996 8.99316 89.8996 8.99316C90.5996 8.99316 91.0996 9.19316 91.4996 9.69316C91.8996 10.0932 92.0996 10.6932 92.0996 11.3932ZM90.9996 11.3932C90.9996 10.9932 90.8996 10.5932 90.6996 10.2932C90.4996 9.89317 90.1996 9.79317 89.7996 9.79317C89.3996 9.79317 89.0996 9.99317 88.8996 10.2932C88.6996 10.5932 88.5996 10.9932 88.5996 11.3932C88.5996 11.7932 88.6996 12.1932 88.8996 12.4932C89.0996 12.8932 89.3996 12.9932 89.7996 12.9932C90.1996 12.9932 90.4996 12.7932 90.6996 12.3932C90.8996 12.1932 90.9996 11.7932 90.9996 11.3932Z" fill="white"/>
<path d="M97.5992 13.6936H96.5992V11.0936C96.5992 10.2936 96.2992 9.89355 95.6992 9.89355C95.3992 9.89355 95.1992 9.99356 94.9992 10.1936C94.7992 10.3936 94.6992 10.6936 94.6992 10.9936V13.6936H93.6992V10.3936C93.6992 9.99355 93.6992 9.59356 93.6992 9.09356H94.5992V9.79356C94.6992 9.59356 94.8992 9.39356 95.0992 9.19356C95.3992 8.99356 95.6992 8.89355 95.9992 8.89355C96.3992 8.89355 96.7992 8.99356 97.0992 9.29356C97.4992 9.59356 97.5992 10.0936 97.5992 10.7936V13.6936Z" fill="white"/>
<path d="M104.399 9.89316H103.299V12.0932C103.299 12.6932 103.499 12.8932 103.899 12.8932C104.099 12.8932 104.199 12.8932 104.399 12.8932V13.6932C104.199 13.7932 103.899 13.7932 103.599 13.7932C103.199 13.7932 102.899 13.6932 102.699 13.3932C102.499 13.1932 102.399 12.6932 102.399 12.1932V9.89316H101.699V9.09316H102.399V8.29317L103.399 7.99316V9.09316H104.499V9.89316H104.399Z" fill="white"/>
<path d="M109.8 13.6932H108.8V11.0932C108.8 10.2932 108.5 9.89316 107.9 9.89316C107.4 9.89316 107.1 10.0932 106.9 10.5932C106.9 10.6932 106.9 10.7932 106.9 10.9932V13.6932H105.9V6.99316H106.9V9.79317C107.2 9.29317 107.7 8.99316 108.3 8.99316C108.7 8.99316 109.1 9.09316 109.3 9.39316C109.6 9.69316 109.8 10.2932 109.8 10.8932V13.6932Z" fill="white"/>
<path d="M115.301 11.1938C115.301 11.3938 115.301 11.4938 115.301 11.6938H112.301C112.301 12.1938 112.501 12.4938 112.701 12.6938C113.001 12.8938 113.301 12.9937 113.701 12.9937C114.201 12.9937 114.601 12.8938 114.901 12.7938L115.101 13.4938C114.701 13.6938 114.201 13.7938 113.601 13.7938C112.901 13.7938 112.301 13.5937 111.901 13.1937C111.501 12.7937 111.301 12.1937 111.301 11.4937C111.301 10.7937 111.501 10.1938 111.901 9.79375C112.301 9.29375 112.801 9.09375 113.501 9.09375C114.201 9.09375 114.701 9.29375 115.001 9.79375C115.201 10.0938 115.301 10.5938 115.301 11.1938ZM114.401 10.8937C114.401 10.5937 114.301 10.2938 114.201 10.0938C114.001 9.79375 113.801 9.69375 113.401 9.69375C113.101 9.69375 112.801 9.79375 112.601 10.0938C112.401 10.2938 112.301 10.5937 112.301 10.8937H114.401Z" fill="white"/>
</svg>
