<svg width="40" height="40" viewBox="0 0 40 40" fill="none" xmlns="http://www.w3.org/2000/svg">
<path d="M19.9993 10.166C14.4993 10.166 10.166 14.666 10.166 19.9993C10.166 25.3327 14.666 29.8327 19.9993 29.8327C25.3327 29.8327 29.8327 25.3327 29.8327 19.9993C29.8327 14.666 25.4994 10.166 19.9993 10.166ZM19.9993 26.9994C16.166 26.9994 12.9993 23.8327 12.9993 19.9993C12.9993 16.166 16.166 12.9993 19.9993 12.9993C23.8327 12.9993 26.9994 16.166 26.9994 19.9993C26.9994 23.8327 23.8327 26.9994 19.9993 26.9994ZM19.9993 7.33268C20.8327 7.33268 21.3327 6.66602 21.3327 5.99935V2.99935C21.3327 2.33268 20.8327 1.66602 19.9993 1.66602C19.166 1.66602 18.666 2.33268 18.666 2.99935V5.83268C18.666 6.66602 19.166 7.33268 19.9993 7.33268ZM19.9993 32.666C19.166 32.666 18.666 33.3327 18.666 33.9993V36.8327C18.666 37.666 19.3327 38.166 19.9993 38.166C20.666 38.166 21.3327 37.4994 21.3327 36.8327V33.9993C21.3327 33.3327 20.8327 32.666 19.9993 32.666ZM30.9994 10.9993L32.9993 8.99935C33.4993 8.49935 33.4993 7.49935 32.9993 6.99935C32.4993 6.49935 31.4994 6.49935 30.9994 6.99935L28.9993 8.99935C28.4993 9.49935 28.4993 10.4993 28.9993 10.9993C29.4993 11.4993 30.4994 11.4993 30.9994 10.9993ZM8.99935 28.9993L6.99935 30.9994C6.49935 31.4994 6.49935 32.4993 6.99935 32.9993C7.49935 33.4993 8.49935 33.4993 8.99935 32.9993L10.9993 30.9994C11.4993 30.4994 11.4993 29.4993 10.9993 28.9993C10.4993 28.4993 9.49935 28.4993 8.99935 28.9993ZM7.33268 19.9993C7.33268 19.166 6.66602 18.666 5.99935 18.666H2.99935C2.33268 18.666 1.66602 19.166 1.66602 19.9993C1.66602 20.8327 2.33268 21.3327 2.99935 21.3327H5.83268C6.66602 21.3327 7.33268 20.8327 7.33268 19.9993ZM36.9994 18.666H34.166C33.3327 18.666 32.8327 19.3327 32.8327 19.9993C32.8327 20.666 33.4994 21.3327 34.166 21.3327H36.9994C37.8327 21.3327 38.3327 20.666 38.3327 19.9993C38.3327 19.3327 37.666 18.666 36.9994 18.666ZM8.99935 10.9993C9.49935 11.4993 10.4993 11.4993 10.9993 10.9993C11.4993 10.4993 11.4993 9.49935 10.9993 8.99935L8.99935 6.99935C8.49935 6.49935 7.49935 6.49935 6.99935 6.99935C6.49935 7.49935 6.49935 8.49935 6.99935 8.99935L8.99935 10.9993ZM30.9994 28.9993C30.4994 28.4993 29.4993 28.4993 28.9993 28.9993C28.4993 29.4993 28.4993 30.4994 28.9993 30.9994L30.9994 32.9993C31.4994 33.4993 32.4993 33.4993 32.9993 32.9993C33.4993 32.4993 33.4993 31.4994 32.9993 30.9994L30.9994 28.9993Z" fill="#E5AC2E"/>
<path d="M20 25C22.7614 25 25 22.7614 25 20C25 17.2386 22.7614 15 20 15C17.2386 15 15 17.2386 15 20C15 22.7614 17.2386 25 20 25Z" fill="#E5AC2E"/>
</svg>
