<svg width="18" height="15" viewBox="0 0 18 15" fill="none" xmlns="http://www.w3.org/2000/svg">
<path d="M16.2 1.36364H14.4V0.454545C14.4 0.204545 14.1975 0 13.95 0C13.7025 0 13.5 0.204545 13.5 0.454545V1.36364H4.5V0.454545C4.5 0.204545 4.2975 0 4.05 0C3.8025 0 3.6 0.204545 3.6 0.454545V1.36364H1.8C0.81 1.36364 0 2.18182 0 3.18182V13.1818C0 14.1818 0.81 15 1.8 15H16.2C17.19 15 18 14.1818 18 13.1818V3.18182C18 2.18182 17.19 1.36364 16.2 1.36364ZM17.1 13.1818C17.1 13.6818 16.695 14.0909 16.2 14.0909H1.8C1.305 14.0909 0.9 13.6818 0.9 13.1818V6.36364H17.1V13.1818ZM17.1 5.45455H0.9V3.18182C0.9 2.68182 1.305 2.27273 1.8 2.27273H3.6V3.63636C3.6 3.88636 3.8025 4.09091 4.05 4.09091C4.2975 4.09091 4.5 3.88636 4.5 3.63636V2.27273H13.5V3.63636C13.5 3.88636 13.7025 4.09091 13.95 4.09091C14.1975 4.09091 14.4 3.88636 14.4 3.63636V2.27273H16.2C16.695 2.27273 17.1 2.68182 17.1 3.18182V5.45455Z" fill="#1E4D45"/>
</svg>
