<svg width="17" height="17" viewBox="0 0 17 17" fill="none" xmlns="http://www.w3.org/2000/svg">
<path fill-rule="evenodd" clip-rule="evenodd" d="M0.395413 0.395535C0.867303 -0.0763436 1.63237 -0.0763436 2.10426 0.395535L8.49984 6.79113L14.8954 0.395535C15.3673 -0.0763436 16.1324 -0.0763436 16.6043 0.395535C17.0761 0.867425 17.0761 1.63249 16.6043 2.10438L10.2087 8.49996L16.6043 14.8955C17.0761 15.3674 17.0761 16.1325 16.6043 16.6044C16.1324 17.0762 15.3673 17.0762 14.8954 16.6044L8.49984 10.2088L2.10426 16.6044C1.63237 17.0762 0.867303 17.0762 0.395413 16.6044C-0.0764657 16.1325 -0.0764657 15.3674 0.395413 14.8955L6.79101 8.49996L0.395413 2.10438C-0.0764657 1.63249 -0.0764657 0.867425 0.395413 0.395535Z" fill="#F0F1F2"/>
</svg>
