<svg width="24" height="26" viewBox="0 0 24 26" fill="none" xmlns="http://www.w3.org/2000/svg">
<path fill-rule="evenodd" clip-rule="evenodd" d="M20.7273 0C22.5348 0 24 1.58736 24 3.54545V22.4545C24 24.4127 22.5348 26 20.7273 26H3.27273C1.46525 26 0 24.4127 0 22.4545V3.54545C0 1.58736 1.46525 0 3.27273 0H20.7273ZM20.7273 2.36364C21.3298 2.36364 21.8182 2.89276 21.8182 3.54545V22.4545C21.8182 23.1073 21.3298 23.6364 20.7273 23.6364H15.2727V15.3635H17.5377C18.0072 15.3635 18.424 15.038 18.5726 14.5554L19.0559 12.9848C19.2325 12.4107 18.8381 11.8181 18.2797 11.8181H15.2727V9.45445C15.2727 8.86354 15.8182 8.27263 16.3636 8.27263H18.5455C19.148 8.27263 19.6364 7.74351 19.6364 7.09081V6.2801C19.6364 5.89835 19.4113 5.55608 19.0705 5.45866C17.6405 5.04985 16.3636 5.04985 16.3636 5.04985C13.6364 5.04985 12 7.09081 12 8.86354V11.8181H9.81818C9.21569 11.8181 8.72727 12.3472 8.72727 12.9999V14.1817C8.72727 14.8344 9.21568 15.3635 9.81818 15.3635H12V23.6364H3.27273C2.67024 23.6364 2.18182 23.1073 2.18182 22.4545V3.54545C2.18182 2.89276 2.67024 2.36364 3.27273 2.36364H20.7273Z" fill="#3D5A80"/>
</svg>
