<svg width="11" height="13" viewBox="0 0 11 13" fill="none" xmlns="http://www.w3.org/2000/svg">
<path id="Vector" d="M7.94444 11.7H3.05556C2.56933 11.7 2.10301 11.4946 1.75919 11.1289C1.41538 10.7632 1.22222 10.2672 1.22222 9.75V3.25C1.22222 3.07761 1.15784 2.91228 1.04323 2.79038C0.928626 2.66848 0.773188 2.6 0.611111 2.6C0.449034 2.6 0.293596 2.66848 0.17899 2.79038C0.0643847 2.91228 0 3.07761 0 3.25V9.75C0 10.612 0.321924 11.4386 0.894952 12.0481C1.46798 12.6576 2.24517 13 3.05556 13H7.94444C8.10652 13 8.26196 12.9315 8.37657 12.8096C8.49117 12.6877 8.55556 12.5224 8.55556 12.35C8.55556 12.1776 8.49117 12.0123 8.37657 11.8904C8.26196 11.7685 8.10652 11.7 7.94444 11.7ZM11 4.511C10.9936 4.45129 10.9813 4.39246 10.9633 4.3355V4.277C10.934 4.21017 10.8948 4.14873 10.8472 4.095L7.18056 0.195C7.13004 0.144441 7.07228 0.102753 7.00944 0.0714999H6.95444L6.75889 0H4.27778C3.79155 0 3.32523 0.205446 2.98142 0.571142C2.6376 0.936838 2.44444 1.43283 2.44444 1.95V8.45C2.44444 8.96717 2.6376 9.46316 2.98142 9.82886C3.32523 10.1946 3.79155 10.4 4.27778 10.4H9.16667C9.6529 10.4 10.1192 10.1946 10.463 9.82886C10.8068 9.46316 11 8.96717 11 8.45V4.55C11 4.55 11 4.55 11 4.511ZM7.33333 2.2165L8.91611 3.9H7.94444C7.78237 3.9 7.62693 3.83152 7.51232 3.70962C7.39772 3.58772 7.33333 3.42239 7.33333 3.25V2.2165ZM9.77778 8.45C9.77778 8.62239 9.71339 8.78772 9.59879 8.90962C9.48418 9.03152 9.32874 9.1 9.16667 9.1H4.27778C4.1157 9.1 3.96026 9.03152 3.84566 8.90962C3.73105 8.78772 3.66667 8.62239 3.66667 8.45V1.95C3.66667 1.77761 3.73105 1.61228 3.84566 1.49038C3.96026 1.36848 4.1157 1.3 4.27778 1.3H6.11111V3.25C6.11111 3.76717 6.30427 4.26316 6.64808 4.62886C6.9919 4.99455 7.45821 5.2 7.94444 5.2H9.77778V8.45Z" fill="#787D84"/>
</svg>
