<svg width="19" height="19" viewBox="0 0 19 19" fill="none" xmlns="http://www.w3.org/2000/svg">
<path fill-rule="evenodd" clip-rule="evenodd" d="M9.5 0C4.256 0 0 4.256 0 9.5C0 14.744 4.256 19 9.5 19C14.744 19 19 14.744 19 9.5C19 4.256 14.744 0 9.5 0ZM14.2358 16.6203C14.174 16.4018 14.0172 15.8982 13.7132 15.447C13.49 15.1097 13.1812 14.7868 12.749 14.7203C12.4972 14.6823 12.3167 14.6823 12.179 14.7203C11.9747 14.782 11.8655 14.9197 11.723 15.0527C11.4523 15.3045 11.1388 15.5563 10.5355 15.6703C9.97025 15.7748 9.31475 15.485 8.60225 15.1525C7.83275 14.7963 6.95875 14.3925 6.004 15.0955C5.9945 15.1145 5.97075 15.1762 5.966 15.2237C5.947 15.3187 5.9375 15.428 5.93275 15.5467C5.91375 16.207 6.08 17.0715 6.14175 17.3708C7.1725 17.8125 8.30775 18.0595 9.5 18.0595C11.248 18.0595 12.8773 17.5322 14.2358 16.6297V16.6203ZM15.2997 3.2205C14.2196 2.22055 12.8992 1.51701 11.4667 1.17825C10.0343 0.839499 8.53862 0.877047 7.125 1.28725C7.30075 1.577 7.714 2.30375 7.809 2.94025C7.88025 3.42475 7.77575 3.86175 7.44325 4.15625C7.10125 4.46025 6.74025 4.579 6.3935 4.68825C6.099 4.78325 5.8235 4.86875 5.681 5.358C5.47675 6.07525 5.51475 7.65225 5.168 8.6925C4.9875 9.2435 4.69775 9.6615 4.29875 9.86575C4.009 10.0177 3.65275 10.07 3.211 9.96075C2.869 9.87525 2.603 9.66625 2.38925 9.38125C2.15175 9.05825 1.98075 8.62125 1.805 8.2175C1.73375 8.056 1.6625 7.904 1.58175 7.77575C1.51525 7.676 1.44875 7.581 1.34425 7.5525C1.28933 7.53997 1.23212 7.54161 1.178 7.55725C1.03075 8.18425 0.95475 8.835 0.95475 9.50475C0.95475 12.6065 2.6125 15.3235 5.08725 16.8245C5.0255 16.416 4.97325 15.9268 4.9875 15.5135C5.0065 14.9672 5.17275 14.535 5.41975 14.3497C6.536 13.509 7.57625 13.6943 8.51675 14.0743C8.91575 14.2358 9.29575 14.4353 9.64725 14.5825C9.9085 14.687 10.146 14.7773 10.3693 14.7345C10.8538 14.6442 11.0343 14.3973 11.2432 14.2072C11.59 13.8938 11.9653 13.6372 12.901 13.7845C13.6087 13.8985 14.136 14.3735 14.5065 14.9245C14.7583 15.2997 14.9292 15.7083 15.0385 16.017C16.3824 14.8744 17.3412 13.345 17.784 11.6375C17.5227 11.685 17.233 11.7135 16.9432 11.6945C16.5537 11.666 16.169 11.5473 15.8555 11.3003C14.8628 10.507 14.3592 9.10575 14.7487 7.92775C14.8722 7.55725 14.725 7.21525 14.5445 6.8685C14.2927 6.37925 13.9602 5.89 13.7987 5.3675C13.6562 4.9115 13.813 4.4555 14.1693 4.06125C14.4733 3.724 14.9245 3.4295 15.2997 3.2205ZM9.5 5.7C7.4005 5.7 5.7 7.4005 5.7 9.5C5.7 11.5995 7.4005 13.3 9.5 13.3C11.5995 13.3 13.3 11.5995 13.3 9.5C13.3 7.4005 11.5995 5.7 9.5 5.7ZM9.5 6.65C11.0722 6.65 12.35 7.92775 12.35 9.5C12.35 11.0722 11.0722 12.35 9.5 12.35C7.92775 12.35 6.65 11.0722 6.65 9.5C6.65 7.92775 7.92775 6.65 9.5 6.65ZM9.025 8.075V9.5C9.025 9.62825 9.07725 9.747 9.16275 9.83725L10.5878 11.2622C10.773 11.4475 11.0722 11.4475 11.2622 11.2622C11.4475 11.077 11.4475 10.7778 11.2622 10.5878L9.975 9.3005V8.07025C9.975 7.809 9.76125 7.59525 9.5 7.59525C9.23875 7.59525 9.025 7.809 9.025 8.07025V8.075ZM15.9838 3.92825C15.7273 4.0565 15.3757 4.256 15.0907 4.4935C14.972 4.59325 14.8675 4.69775 14.7915 4.807C14.7297 4.89725 14.6775 4.98275 14.706 5.0825C14.8865 5.662 15.3045 6.19875 15.5372 6.74025C15.7415 7.22 15.8223 7.70925 15.6512 8.22225C15.3805 9.03925 15.7557 9.99875 16.4445 10.5497C16.6535 10.716 16.9242 10.7493 17.1855 10.7445C17.48 10.7397 17.765 10.6733 17.9787 10.6115C18.0262 10.2458 18.05 9.87525 18.05 9.49525C18.05 7.36725 17.271 5.41975 15.9838 3.9235V3.92825ZM6.213 1.6055C4.009 2.527 2.2705 4.34625 1.4535 6.6025C1.53425 6.61675 1.61025 6.63575 1.68625 6.6595C2.0235 6.783 2.28 7.06325 2.48425 7.44325C2.66475 7.77575 2.80725 8.19375 2.98775 8.54525C3.10175 8.7685 3.21575 8.9775 3.439 9.0345C3.61 9.07725 3.743 9.07725 3.857 9.0155C4.06125 8.911 4.1705 8.66875 4.2655 8.38375C4.6075 7.353 4.56475 5.79025 4.769 5.08725C4.997 4.28925 5.4055 4.028 5.871 3.85225C6.1655 3.743 6.5075 3.70975 6.80675 3.439C6.87325 3.382 6.878 3.29175 6.87325 3.19675C6.87325 3.078 6.84475 2.94975 6.80675 2.81675C6.6405 2.24675 6.2225 1.62925 6.20825 1.60075L6.213 1.6055Z" fill="#1E4D45"/>
</svg>
