<svg width="40" height="40" viewBox="0 0 40 40" fill="none" xmlns="http://www.w3.org/2000/svg">
<g id="fajr 1">
<path id="Vector" d="M9.66602 25.5C9.33268 25.5 9.33268 24 9.33268 23.3333C9.33268 17.6667 13.9994 12.8333 19.666 12.8333C25.3327 12.8333 29.9993 17.5 29.9993 23.3333C29.9993 24 29.9993 25.5 29.666 25.5H33.8327C33.8327 25.5 34.166 24 34.166 23.3333C34.166 15.1667 27.4994 8.5 19.666 8.5C11.8327 8.5 5.16602 15.1667 5.16602 23.3333C5.16602 24 5.16602 25.5 5.49935 25.5H9.66602Z" fill="#00AECD"/>
<path id="Vector_2" d="M36.334 27.5H3.83398V31.6667H36.334V27.5Z" fill="#00AECD"/>
</g>
</svg>
