<svg width="16" height="13" viewBox="0 0 16 13" fill="none" xmlns="http://www.w3.org/2000/svg">
<path id="Vector" d="M13.2806 2.13284C12.6043 1.45414 11.8012 0.916359 10.9176 0.550359C10.034 0.184358 9.08719 -0.00266214 8.1315 2.86272e-05C8.11434 2.86272e-05 8.09697 9.93785e-05 8.07981 0.000201117C7.11558 -0.00657702 6.15954 0.178471 5.26676 0.544686C4.37398 0.910901 3.5621 1.45105 2.87789 2.13401C2.19368 2.81698 1.65065 3.62926 1.28009 4.52409C0.909528 5.41891 0.718751 6.37858 0.71875 7.34784V11.3044C0.719262 11.7539 0.897153 12.1849 1.2134 12.5028C1.52964 12.8207 1.95842 12.9995 2.40566 13H3.53026C3.9775 12.9995 4.40627 12.8207 4.72252 12.5028C5.03876 12.1849 5.21665 11.7539 5.21716 11.3044V8.47827C5.21665 8.02871 5.03876 7.59772 4.72252 7.27983C4.40627 6.96195 3.9775 6.78314 3.53026 6.78262H1.86834C2.00967 5.22984 2.72616 3.78709 3.87583 2.74027C5.0255 1.69345 6.52444 1.11895 8.07563 1.13063C8.07851 1.13067 8.08112 1.13067 8.084 1.13063C9.6352 1.11891 11.1342 1.69338 12.2839 2.74021C13.4336 3.78704 14.1501 5.22982 14.2914 6.78262H12.6294C12.1822 6.78314 11.7534 6.96195 11.4372 7.27983C11.1209 7.59772 10.943 8.02871 10.9425 8.47827V11.3044C10.943 11.7539 11.1209 12.1849 11.4372 12.5028C11.7534 12.8207 12.1822 12.9995 12.6294 13H13.754C14.2013 12.9995 14.63 12.8207 14.9463 12.5028C15.2625 12.1849 15.4404 11.7539 15.4409 11.3044V7.34784C15.4437 6.37789 15.2541 5.41711 14.8832 4.52168C14.5123 3.62626 13.9674 2.81414 13.2806 2.13284Z" fill="#787D84"/>
</svg>
