<svg width="16" height="16" viewBox="0 0 16 16" fill="none" xmlns="http://www.w3.org/2000/svg">
<g id="Icon-Forward-Filled">
<path id="Vector" d="M10.9604 7.88191L11.0511 7.98333L10.9604 8.08475C10.9508 8.0955 10.9384 8.10661 10.9224 8.11723L10.9224 8.11719L10.9166 8.12118L2.08327 14.1878L2.07217 14.1955L2.06149 14.2037C2.03189 14.2265 2.00842 14.2322 1.99102 14.2333C1.9712 14.2345 1.94696 14.2301 1.92153 14.2167C1.86954 14.1891 1.83301 14.1359 1.83301 14.0667V1.93333C1.83301 1.86413 1.86954 1.81093 1.92153 1.78334C1.94696 1.76985 1.9712 1.76551 1.99102 1.76674C2.00842 1.76783 2.03189 1.77354 2.06149 1.79631L2.07268 1.80492L2.08433 1.81288L10.9177 7.84622L10.9176 7.84624L10.9224 7.84944C10.9384 7.86006 10.9508 7.87117 10.9604 7.88191ZM11.833 7.54853V7.10937V1.66667C11.833 1.57614 11.9092 1.5 11.9997 1.5H13.9997C14.0902 1.5 14.1663 1.57614 14.1663 1.66667V14.3333C14.1663 14.4239 14.0902 14.5 13.9997 14.5H11.9997C11.9091 14.5 11.833 14.4239 11.833 14.3333V8.85731V8.41813V7.54853Z" fill="#F2F2F2" stroke="#FFF6F6"/>
</g>
</svg>
