<svg width="26" height="26" viewBox="0 0 26 26" fill="none" xmlns="http://www.w3.org/2000/svg">
<path d="M17.7334 8.56302L17.7334 8.56305C17.5196 8.73792 17.4881 9.05294 17.663 9.26665C18.494 10.2823 19 11.5717 19 13C19 14.4324 18.4913 15.771 17.663 16.7834C17.4882 16.9971 17.5196 17.3121 17.7334 17.487C17.947 17.6618 18.262 17.6304 18.437 17.4167L17.7334 8.56302ZM17.7334 8.56302C17.9471 8.38822 18.262 8.41963 18.437 8.63339M17.7334 8.56302L18.437 8.63339M18.437 8.63339C19.4061 9.81785 20 11.3285 20 13C20 14.6675 19.4087 16.2289 18.4371 17.4166L18.437 8.63339ZM14.726 3.55399L14.726 3.55401C14.8941 3.63918 15 3.81156 15 4.00001V22C15 22.1884 14.8941 22.3609 14.7261 22.446L14.726 22.446C14.5579 22.5312 14.3562 22.5146 14.2043 22.4032L14.2043 22.4032L6.91974 17.0612L6.81203 16.9822L6.67927 16.9675L4.25182 16.6978L4.25183 16.6977L4.24542 16.6971C2.9291 16.568 2 15.4417 2 14.2V11.8C2 10.4916 2.99526 9.43056 4.24524 9.30299L4.24524 9.30301L4.2497 9.30252L6.67928 9.03257L6.81203 9.01782L6.91974 8.93883L14.2043 3.59681C14.3562 3.48537 14.558 3.46884 14.726 3.55399ZM14 5.97342V4.98671L13.2043 5.57021L7.29568 9.90321C7.2251 9.95497 7.14219 9.98728 7.05524 9.99694L7.05521 9.99694L4.35521 10.2969L4.35493 10.297L4.3521 10.2973L4.34975 10.2975C3.60086 10.3724 3 11.0114 3 11.8V14.2C3 14.9606 3.57159 15.6273 4.34538 15.7021C4.34606 15.7021 4.34673 15.7022 4.34741 15.7023L4.35738 15.7033L7.05521 16.003L7.0553 16.0031C7.14212 16.0127 7.22503 16.045 7.29568 16.0968L13.2043 20.4298L14 21.0133V20.0266V5.97342ZM20.4117 5.53186L20.4117 5.53181C20.615 5.34502 20.9313 5.35834 21.1181 5.5617C22.9004 7.50114 24 10.1209 24 13C24 15.8791 22.9004 18.4988 21.1181 20.4383L21.1181 20.4383C20.9313 20.6417 20.615 20.655 20.4117 20.4682L20.4117 20.4681C20.2083 20.2813 20.195 19.965 20.3818 19.7618L20.3819 19.7617C21.9997 18.0012 23 15.6209 23 13C23 10.3791 21.9997 7.99889 20.3819 6.23832L20.0137 6.57663L20.3819 6.23831C20.195 6.03496 20.2084 5.71868 20.4117 5.53186Z" fill="#F2F2F2" stroke="white"/>
<path d="M25 25L1 1" stroke="white" stroke-width="2" stroke-miterlimit="10" stroke-linecap="round"/>
</svg>
