<svg width="18" height="28" viewBox="0 0 18 28" fill="none" xmlns="http://www.w3.org/2000/svg">
<path d="M15.3 3.45117H13.5C12.0088 3.45117 10.8 4.62641 10.8 6.02695V21.777C10.8 23.2267 12.0088 24.402 13.5 24.402L15.3 24.5004C16.7912 24.5004 18 23.3252 18 21.8754V6.12539C18 4.67562 16.7906 3.45117 15.3 3.45117ZM4.5 3.45117H2.7C1.20881 3.45117 0 4.62641 0 6.07617V21.8262C0 23.3246 1.20881 24.5004 2.7 24.5004H4.5C5.99119 24.5004 7.2 23.3252 7.2 21.8754V6.12539C7.2 4.67562 5.99062 3.45117 4.5 3.45117Z" fill="white"/>
</svg>
