<svg width="16" height="16" viewBox="0 0 16 16" fill="none" xmlns="http://www.w3.org/2000/svg">
<g id="Icon-Rewind-Filled">
<path id="Vector" d="M4.16634 8.85662V14.3333C4.16634 14.4239 4.0902 14.5 3.99967 14.5H1.99967C1.90915 14.5 1.83301 14.4239 1.83301 14.3333V1.66667C1.83301 1.57614 1.90915 1.5 1.99967 1.5H3.99967C4.0902 1.5 4.16634 1.57614 4.16634 1.66667V7.11005V7.54853V8.41813V8.85662ZM5.03886 8.08462L4.94818 7.98333L5.03886 7.88204C5.04862 7.87114 5.06105 7.86 5.07692 7.84943L5.07694 7.84945L5.08168 7.84622L13.915 1.81288L13.9267 1.80492L13.9379 1.79631C13.9675 1.77354 13.9909 1.76783 14.0083 1.76674C14.0281 1.76551 14.0524 1.76985 14.0778 1.78334C14.1298 1.81093 14.1663 1.86413 14.1663 1.93333V14.0667C14.1663 14.1359 14.1298 14.1891 14.0778 14.2167C14.0524 14.2301 14.0281 14.2345 14.0083 14.2333C13.9909 14.2322 13.9675 14.2265 13.9379 14.2037L13.9272 14.1955L13.9161 14.1878L5.08274 8.12118L5.08277 8.12114L5.07692 8.11724C5.06105 8.10666 5.04862 8.09553 5.03886 8.08462Z" fill="#F2F2F2" stroke="#FFF6F6"/>
</g>
</svg>
