<svg width="19" height="19" viewBox="0 0 19 19" fill="none" xmlns="http://www.w3.org/2000/svg">
<path d="M9.73949 1.6677C12.2117 1.6677 12.5018 1.67872 13.479 1.7228C14.3826 1.76321 14.8712 1.91381 15.1981 2.04238C15.6315 2.21135 15.9401 2.40972 16.2634 2.73297C16.5866 3.05622 16.7886 3.36479 16.9539 3.79824C17.0788 4.12517 17.2331 4.61372 17.2735 5.51737C17.3176 6.49448 17.3286 6.78467 17.3286 9.25683C17.3286 11.729 17.3176 12.0192 17.2735 12.9963C17.2331 13.8999 17.0825 14.3885 16.9539 14.7154C16.785 15.1489 16.5866 15.4574 16.2634 15.7807C15.9401 16.104 15.6315 16.306 15.1981 16.4713C14.8712 16.5962 14.3826 16.7505 13.479 16.7909C12.5018 16.8349 12.2117 16.846 9.73949 16.846C7.26733 16.846 6.97713 16.8349 6.00002 16.7909C5.09638 16.7505 4.60782 16.5999 4.2809 16.4713C3.84744 16.3023 3.53888 16.104 3.21563 15.7807C2.89237 15.4574 2.69034 15.1489 2.52504 14.7154C2.40014 14.3885 2.24586 13.8999 2.20545 12.9963C2.16137 12.0192 2.15035 11.729 2.15035 9.25683C2.15035 6.78467 2.16137 6.49448 2.20545 5.51737C2.24586 4.61372 2.39647 4.12517 2.52504 3.79824C2.69401 3.36479 2.89237 3.05622 3.21563 2.73297C3.53888 2.40972 3.84744 2.20768 4.2809 2.04238C4.60782 1.91749 5.09638 1.76321 6.00002 1.7228C6.97713 1.67505 7.26733 1.6677 9.73949 1.6677ZM9.73949 0C7.22692 0 6.91101 0.01102 5.92288 0.0551002C4.93843 0.0991804 4.2662 0.257134 3.67847 0.484882C3.06869 0.719976 2.55442 1.03956 2.04015 1.55383C1.52589 2.06809 1.20998 2.58604 0.97121 3.19214C0.743462 3.77987 0.585509 4.4521 0.541428 5.44023C0.497348 6.42468 0.486328 6.74059 0.486328 9.25316C0.486328 11.7657 0.497348 12.0816 0.541428 13.0698C0.585509 14.0542 0.743462 14.7264 0.97121 15.3179C1.2063 15.9276 1.52589 16.4419 2.04015 16.9562C2.55442 17.4704 3.07236 17.7863 3.67847 18.0251C4.2662 18.2529 4.93843 18.4108 5.92656 18.4549C6.91469 18.499 7.22692 18.51 9.74316 18.51C12.2594 18.51 12.5716 18.499 13.5598 18.4549C14.5442 18.4108 15.2165 18.2529 15.8079 18.0251C16.4176 17.79 16.9319 17.4704 17.4462 16.9562C17.9604 16.4419 18.2764 15.924 18.5151 15.3179C18.7429 14.7301 18.9008 14.0579 18.9449 13.0698C18.989 12.0816 19 11.7694 19 9.25316C19 6.73692 18.989 6.42468 18.9449 5.43655C18.9008 4.4521 18.7429 3.77987 18.5151 3.18847C18.28 2.57869 17.9604 2.06442 17.4462 1.55015C16.9319 1.03588 16.414 0.719976 15.8079 0.481208C15.2201 0.253461 14.5479 0.095507 13.5598 0.0514269C12.568 0.01102 12.2521 0 9.73949 0Z" fill="white"/>
<path d="M9.73964 4.5C7.11687 4.5 4.98633 6.62687 4.98633 9.25331C4.98633 11.8798 7.11687 14.0066 9.73964 14.0066C12.3624 14.0066 14.493 11.8761 14.493 9.25331C14.493 6.63054 12.3624 4.5 9.73964 4.5ZM9.73964 12.3389C8.03521 12.3389 6.65403 10.9577 6.65403 9.25331C6.65403 7.54888 8.03521 6.1677 9.73964 6.1677C11.4441 6.1677 12.8253 7.54888 12.8253 9.25331C12.8253 10.9577 11.4441 12.3389 9.73964 12.3389Z" fill="white"/>
<path d="M14.6797 5.42183C15.2923 5.42183 15.789 4.92515 15.789 4.31248C15.789 3.6998 15.2923 3.20312 14.6797 3.20312C14.067 3.20312 13.5703 3.6998 13.5703 4.31248C13.5703 4.92515 14.067 5.42183 14.6797 5.42183Z" fill="white"/>
</svg>
