<svg width="40" height="40" viewBox="0 0 40 40" fill="none" xmlns="http://www.w3.org/2000/svg">
<g id="isha 1">
<path id="Vector" d="M28.1667 25.9987C22.3333 25.9987 17.6667 21.1654 17.6667 15.4987C17.6667 10.9987 20.3333 7.33203 24.5 5.83203C23.3333 5.66536 22 5.33203 20.6667 5.33203C12.5 5.33203 6 12.1654 6 19.9987C6 27.832 12.8333 34.6654 20.6667 34.6654C27.6667 34.6654 33.5 29.832 35 23.6654C33 24.9987 30.8333 25.9987 28.1667 25.9987ZM20.5 30.4987C14.5 30.4987 9.83333 25.6654 9.83333 19.832C9.83333 16.332 11.5 13.332 14 11.332C13.6667 12.4987 13.5 13.9987 13.5 15.332C13.5 22.332 18.3333 28.1654 24.8333 29.6654C23.3333 30.1654 22 30.4987 20.5 30.4987Z" fill="#1E4D45"/>
</g>
</svg>
