<svg width="20" height="20" viewBox="0 0 20 20" fill="none" xmlns="http://www.w3.org/2000/svg">
<path fill-rule="evenodd" clip-rule="evenodd" d="M19.4863 19.4863H15.4825V12.6669C15.4825 10.7972 14.7721 9.75236 13.2922 9.75236C11.6823 9.75236 10.8412 10.8397 10.8412 12.6669V19.4863H6.9826V6.49545H10.8412V8.24531C10.8412 8.24531 12.0013 6.09855 14.7581 6.09855C17.5136 6.09855 19.4863 7.78122 19.4863 11.2613V19.4863ZM2.37933 4.79439C1.06502 4.79439 0 3.72101 0 2.39719C0 1.07338 1.06502 0 2.37933 0C3.69364 0 4.75803 1.07338 4.75803 2.39719C4.75803 3.72101 3.69364 4.79439 2.37933 4.79439ZM0.386939 19.4863H4.41043V6.49545H0.386939V19.4863Z" fill="white"/>
</svg>
