<svg xmlns="http://www.w3.org/2000/svg" width="21" height="21"
                                viewBox="0 0 21 21" fill="none">
                                <path
                                    d="M4.13119 18.75C4.0449 18.7493 3.96149 18.7188 3.89504 18.6637C2.20733 17.298 0.984409 15.4424 0.394712 13.3525C-0.194985 11.2625 -0.122442 9.04105 0.602349 6.99407C1.32714 4.94708 2.66852 3.17528 4.44173 1.9227C6.21494 0.670119 8.33274 -0.00160537 10.5034 4.56629e-05C12.1086 -0.004712 13.693 0.362371 15.1327 1.07254C15.2216 1.11683 15.2893 1.19464 15.321 1.28886C15.3526 1.38309 15.3455 1.48602 15.3013 1.57504C15.2797 1.61942 15.2496 1.6591 15.2127 1.69181C15.1757 1.72451 15.1327 1.7496 15.086 1.76562C15.0393 1.78165 14.99 1.7883 14.9407 1.7852C14.8915 1.7821 14.8433 1.7693 14.7991 1.74754C12.6155 0.674813 10.1099 0.457832 7.77456 1.13923C5.43923 1.82063 3.44306 3.35115 2.17829 5.43002C0.951495 7.44703 0.49798 9.84088 0.901946 12.1671C1.30591 14.4933 2.53991 16.5939 4.37483 18.0787C4.41306 18.1099 4.44476 18.1484 4.46809 18.1919C4.49143 18.2354 4.50596 18.2831 4.51083 18.3322C4.51571 18.3813 4.51084 18.4309 4.49651 18.4782C4.48217 18.5254 4.45866 18.5693 4.42731 18.6075C4.39201 18.6522 4.347 18.6882 4.29569 18.7129C4.24438 18.7376 4.18813 18.7503 4.13119 18.75ZM10.5034 21C8.82867 21.0045 7.17758 20.6044 5.69051 19.8337C5.60204 19.788 5.53535 19.7089 5.50512 19.614C5.47489 19.519 5.4836 19.416 5.52933 19.3275C5.57506 19.239 5.65407 19.1722 5.74897 19.142C5.84387 19.1118 5.94689 19.1205 6.03536 19.1662C7.92429 20.1416 10.0802 20.4725 12.1745 20.1083C14.2688 19.7441 16.1867 18.7048 17.6358 17.1489C19.0849 15.593 19.9858 13.6057 20.2011 11.49C20.4165 9.37433 19.9344 7.24621 18.8286 5.43002C18.2462 4.47685 17.5059 3.62977 16.6395 2.92503C16.5628 2.86262 16.5139 2.77244 16.5034 2.67411C16.4929 2.57579 16.5216 2.47728 16.5833 2.40004C16.6142 2.36151 16.6525 2.32949 16.6958 2.3058C16.7391 2.28211 16.7867 2.26722 16.8359 2.26199C16.885 2.25677 16.9346 2.2613 16.982 2.27534C17.0293 2.28937 17.0735 2.31264 17.1118 2.34379C18.0439 3.10222 18.8399 4.01402 19.4658 5.04003C20.4344 6.63187 20.9622 8.45295 20.9948 10.3163C21.0274 12.1796 20.5637 14.018 19.6513 15.6428C18.7389 17.2676 17.4107 18.6202 15.803 19.5616C14.1954 20.5031 12.3662 20.9995 10.5034 21Z"
                                    fill="#2A486C" fill-opacity="0.65" />
                                <path
                                    d="M10.1289 20.6257C10.036 20.6254 9.94651 20.5907 9.87777 20.5282C8.46995 19.2652 7.39714 17.6727 6.75537 15.8932C6.04354 14.1828 5.66197 12.3531 5.63086 10.5007C5.63498 8.64416 6.01762 6.80799 6.75537 5.10447C7.45906 3.35824 8.52302 1.78014 9.87777 0.473235C9.95229 0.413366 10.0468 0.384236 10.1421 0.391801C10.2374 0.399366 10.3262 0.443055 10.3903 0.513934C10.4545 0.584814 10.4891 0.67753 10.4872 0.773127C10.4853 0.868723 10.447 0.959977 10.38 1.02823C9.0999 2.26095 8.09351 3.74947 7.42633 5.39697C6.7357 7.00975 6.3799 8.74614 6.38053 10.5007C6.4046 12.2542 6.76073 13.9873 7.43008 15.6082C8.03599 17.2856 9.0498 18.7857 10.38 19.9732C10.436 20.024 10.4752 20.0906 10.4927 20.1642C10.5101 20.2377 10.5049 20.3149 10.4777 20.3854C10.4506 20.456 10.4027 20.5167 10.3405 20.5595C10.2782 20.6024 10.2045 20.6255 10.1289 20.6257Z"
                                    fill="#2A486C" fill-opacity="0.65" />
                                <path
                                    d="M10.8796 20.6261C10.804 20.6259 10.7302 20.6029 10.668 20.56C10.6057 20.5171 10.5579 20.4564 10.5307 20.3859C10.5036 20.3153 10.4984 20.2382 10.5158 20.1646C10.5332 20.0911 10.5725 20.0245 10.6284 19.9736C11.9587 18.7862 12.9725 17.2861 13.5784 15.6087C14.2477 13.9878 14.6039 12.2547 14.6279 10.5012C14.6286 8.74662 14.2728 7.01024 13.5821 5.39745C12.915 3.74995 11.9086 2.26143 10.6284 1.02872C10.5886 0.996711 10.5557 0.956896 10.5318 0.911718C10.5079 0.866539 10.4935 0.81695 10.4895 0.765996C10.4854 0.715043 10.4918 0.6638 10.5083 0.615416C10.5248 0.567031 10.551 0.522527 10.5853 0.484637C10.6195 0.446746 10.6612 0.416269 10.7077 0.395077C10.7542 0.373885 10.8045 0.362426 10.8556 0.361403C10.9067 0.360381 10.9575 0.369816 11.0048 0.38913C11.0521 0.408445 11.0949 0.43723 11.1307 0.473718C12.4922 1.77882 13.5626 3.35704 14.2718 5.10495C15.0032 6.80982 15.3794 8.64595 15.3776 10.5012C15.3465 12.3536 14.9649 14.1833 14.2531 15.8937C13.607 17.6747 12.529 19.2674 11.1157 20.5286C11.0508 20.5878 10.9673 20.6223 10.8796 20.6261Z"
                                    fill="#2A486C" fill-opacity="0.65" />
                                <path
                                    d="M20.6258 10.8769H0.384603C0.28519 10.8769 0.189849 10.8374 0.119553 10.7671C0.0492574 10.6968 0.00976562 10.6014 0.00976562 10.5019C0.00976562 10.4025 0.0492574 10.3071 0.119553 10.2368C0.189849 10.1664 0.28519 10.1269 0.384603 10.1269H20.6258C20.7252 10.1269 20.8206 10.1664 20.8909 10.2368C20.9612 10.3071 21.0007 10.4025 21.0007 10.5019C21.0007 10.6014 20.9612 10.6968 20.8909 10.7671C20.8206 10.8374 20.7252 10.8769 20.6258 10.8769ZM19.1265 5.62695H1.88395C1.78454 5.62695 1.6892 5.58744 1.6189 5.51712C1.54861 5.44679 1.50911 5.35141 1.50911 5.25195C1.50911 5.1525 1.54861 5.05711 1.6189 4.98679C1.6892 4.91646 1.78454 4.87695 1.88395 4.87695H19.1265C19.2259 4.87695 19.3212 4.91646 19.3915 4.98679C19.4618 5.05711 19.5013 5.1525 19.5013 5.25195C19.5013 5.35141 19.4618 5.44679 19.3915 5.51712C19.3212 5.58744 19.2259 5.62695 19.1265 5.62695ZM19.1265 16.1269H1.88395C1.78454 16.1269 1.6892 16.0874 1.6189 16.0171C1.54861 15.9467 1.50911 15.8514 1.50911 15.7519C1.50911 15.6525 1.54861 15.5571 1.6189 15.4867C1.6892 15.4164 1.78454 15.3769 1.88395 15.3769H19.1265C19.2259 15.3769 19.3212 15.4164 19.3915 15.4867C19.4618 15.5571 19.5013 15.6525 19.5013 15.7519C19.5013 15.8514 19.4618 15.9467 19.3915 16.0171C19.3212 16.0874 19.2259 16.1269 19.1265 16.1269Z"
                                    fill="#2A486C" fill-opacity="0.65" />
                                <path
                                    d="M10.5037 20.623C10.4043 20.623 10.309 20.5835 10.2387 20.5131C10.1684 20.4428 10.1289 20.3474 10.1289 20.248V0.748045C10.1289 0.64859 10.1684 0.553207 10.2387 0.482881C10.309 0.412556 10.4043 0.373047 10.5037 0.373047C10.6032 0.373047 10.6985 0.412556 10.7688 0.482881C10.8391 0.553207 10.8786 0.64859 10.8786 0.748045V20.248C10.8786 20.3474 10.8391 20.4428 10.7688 20.5131C10.6985 20.5835 10.6032 20.623 10.5037 20.623Z"
                                    fill="#2A486C" fill-opacity="0.65" />
                            </svg>