<svg width="17" height="29" viewBox="0 0 17 29" fill="none" xmlns="http://www.w3.org/2000/svg">
<rect width="17" height="29" fill="#1E1E1E"/>
<g id="Frame 1">
<rect width="31042" height="33170" transform="translate(-7358 -4629)" fill="white"/>
<g id="prayer now home" clip-path="url(#clip0_0_1)">
<rect width="1440" height="3145" transform="translate(-1358 -133)" fill="#F8F8F8"/>
<g id="Group 1000001425">
<rect id="Rectangle 314" x="-187.5" y="-18.5" width="239" height="243" rx="9.5" fill="white" stroke="#E8E9EB"/>
<rect id="Rectangle 315" x="-178" y="-9" width="216" height="48" rx="16" fill="#1E4D45"/>
<g id="Group 1000001276">
<g id="Layer 2">
<path id="Vector" d="M1 26.5H2V29H3V26.5H4V29H5V26.5H6V29H7V26.5H8V29H9V26.5H10V29H11V26.5H12V29H13V26.5H14V29H15V26.5H16V29H17V0H16V2.5H15V0H14V2.5H13V0H12V2.5H11V0H10V2.5H9V0H8V2.5H7V0H6V2.5H5V0H4V2.5H3V0H2V2.5H1V0H0V29H1V26.5ZM16 25.5H1V3.5H16V25.5Z" fill="white"/>
<path id="Vector_2" d="M4 23.5002H13C13.1326 23.5002 13.2598 23.4475 13.3536 23.3537C13.4473 23.26 13.5 23.1328 13.5 23.0002V12.4382C13.5005 12.0711 13.42 11.7085 13.2641 11.3762C13.1083 11.0439 12.881 10.75 12.5985 10.5157L12.3555 10.3142C12.6605 9.71768 13.0855 8.57118 12.4315 7.71518C12.004 7.15618 11.17 6.92918 10.383 6.53618C9.83134 6.2522 9.29706 5.93564 8.783 5.58818C8.69971 5.53075 8.60093 5.5 8.49975 5.5C8.39858 5.5 8.2998 5.53075 8.2165 5.58818C7.70249 5.93571 7.1682 6.25227 6.6165 6.53618C5.8455 6.92118 4.9955 7.15718 4.5685 7.71518C3.914 8.57118 4.3395 9.71768 4.6445 10.3142L4.4015 10.5157C4.11903 10.7501 3.89177 11.0439 3.73593 11.3762C3.5801 11.7085 3.49954 12.0711 3.5 12.4382V23.0002C3.5 23.1328 3.55268 23.26 3.64645 23.3537C3.74022 23.4475 3.86739 23.5002 4 23.5002ZM4.5 12.4382C4.49968 12.218 4.54796 12.0004 4.64139 11.8011C4.73482 11.6017 4.8711 11.4253 5.0405 11.2847L5.6065 10.8147C5.70176 10.7353 5.76419 10.6234 5.78174 10.5007C5.79929 10.378 5.7707 10.2531 5.7015 10.1502C5.4905 9.83668 4.9765 8.82818 5.363 8.32268C5.59 8.02618 6.363 7.78068 7.064 7.43068C7.5569 7.17921 8.03622 6.902 8.5 6.60018C8.96378 6.902 9.44311 7.17921 9.936 7.43068C10.6395 7.78218 11.41 8.02568 11.637 8.32268C12.0235 8.82818 11.5095 9.83668 11.2985 10.1502C11.2291 10.253 11.2004 10.3779 11.2179 10.5007C11.2355 10.6235 11.2981 10.7354 11.3935 10.8147L11.959 11.2847C12.1286 11.4253 12.265 11.6017 12.3585 11.8012C12.4521 12.0007 12.5004 12.2184 12.5 12.4387V22.5002H4.5V12.4382Z" fill="white"/>
</g>
</g>
</g>
</g>
</g>
<defs>
<clipPath id="clip0_0_1">
<rect width="1440" height="3145" fill="white" transform="translate(-1358 -133)"/>
</clipPath>
</defs>
</svg>
