<svg width="32" height="53" viewBox="0 0 32 53" fill="none" xmlns="http://www.w3.org/2000/svg">
<g id="Layer 2">
<path id="Vector" d="M0 0H1.82759V5.48276H0V0ZM3.65517 0H5.48276V5.48276H3.65517V0ZM7.31034 0H9.13793V5.48276H7.31034V0ZM10.9655 0H12.7931V5.48276H10.9655V0ZM14.6207 0H16.4483V5.48276H14.6207V0ZM18.2759 0H20.1034V5.48276H18.2759V0ZM21.931 0H23.7586V5.48276H21.931V0ZM25.5862 0H27.4138V5.48276H25.5862V0ZM29.2414 0H31.069V5.48276H29.2414V0ZM0 47.5172H1.82759V53H0V47.5172ZM3.65517 47.5172H5.48276V53H3.65517V47.5172ZM7.31034 47.5172H9.13793V53H7.31034V47.5172ZM10.9655 47.5172H12.7931V53H10.9655V47.5172ZM14.6207 47.5172H16.4483V53H14.6207V47.5172ZM18.2759 47.5172H20.1034V53H18.2759V47.5172ZM21.931 47.5172H23.7586V53H21.931V47.5172ZM25.5862 47.5172H27.4138V53H25.5862V47.5172ZM29.2414 47.5172H31.069V53H29.2414V47.5172Z" fill="#345B34"/>
<path id="Vector_2" d="M30.1552 4.56836H0.913793C0.409119 4.56836 0 4.97748 0 5.48215V47.5166C0 48.0213 0.409119 48.4304 0.913793 48.4304H30.1552C30.6598 48.4304 31.069 48.0213 31.069 47.5166V5.48215C31.069 4.97748 30.6598 4.56836 30.1552 4.56836Z" fill="#4A7C4A"/>
<path id="Vector_3" d="M30.1552 4.56836H24.6724V42.0339C24.6724 42.2762 24.5761 42.5087 24.4048 42.68C24.2334 42.8514 24.001 42.9477 23.7586 42.9477H0V47.5166C0 47.759 0.0962745 47.9914 0.267644 48.1628C0.439013 48.3342 0.67144 48.4304 0.913793 48.4304H30.1552C30.3975 48.4304 30.63 48.3342 30.8013 48.1628C30.9727 47.9914 31.069 47.759 31.069 47.5166V5.48215C31.069 5.2398 30.9727 5.00737 30.8013 4.836C30.63 4.66463 30.3975 4.56836 30.1552 4.56836Z" fill="#3C683C"/>
<path id="Vector_4" d="M23.0248 19.2174L22.5807 18.8491C23.1381 17.759 23.9148 15.6636 22.7196 14.0992C22.0053 13.3555 21.1196 12.7982 20.1399 12.4763C19.7625 12.3118 19.3678 12.14 18.9758 11.9445C17.9676 11.4255 16.9911 10.8469 16.0516 10.2119C15.8994 10.107 15.7189 10.0508 15.534 10.0508C15.3491 10.0508 15.1685 10.107 15.0163 10.2119C14.0769 10.8471 13.1004 11.4256 12.0922 11.9445C11.7011 12.14 11.3063 12.3118 10.9289 12.4763C9.94927 12.7982 9.06352 13.3555 8.34926 14.0992C7.15311 15.6636 7.93075 17.758 8.48816 18.8491L8.04406 19.2174C7.52781 19.6457 7.11247 20.1827 6.82767 20.79C6.54288 21.3974 6.39565 22.0601 6.39649 22.7309V42.0339C6.39649 42.2762 6.49276 42.5087 6.66413 42.68C6.8355 42.8514 7.06793 42.9477 7.31028 42.9477H23.7586C24.0009 42.9477 24.2333 42.8514 24.4047 42.68C24.5761 42.5087 24.6723 42.2762 24.6723 42.0339V22.7309C24.6733 22.0601 24.5261 21.3974 24.2413 20.79C23.9565 20.1826 23.5411 19.6457 23.0248 19.2174Z" fill="#FCD465"/>
<path id="Vector_5" d="M23.0248 19.2181L22.5807 18.8498C23.1381 17.7597 23.9148 15.6643 22.7196 14.0999C22.0053 13.3562 21.1196 12.7989 20.1399 12.477C19.832 12.3427 19.5094 12.1956 19.1896 12.043V37.4656C19.1896 37.708 19.0933 37.9404 18.9219 38.1118C18.7506 38.2831 18.5181 38.3794 18.2758 38.3794H6.39648V42.0346C6.39648 42.2769 6.49276 42.5094 6.66413 42.6807C6.8355 42.8521 7.06792 42.9484 7.31028 42.9484H23.7586C24.0009 42.9484 24.2333 42.8521 24.4047 42.6807C24.5761 42.5094 24.6723 42.2769 24.6723 42.0346V22.7316C24.6733 22.0608 24.526 21.3981 24.2412 20.7907C23.9564 20.1833 23.5411 19.6464 23.0248 19.2181Z" fill="#E5AC2E"/>
</g>
</svg>
