<svg width="17" height="22" viewBox="0 0 17 22" fill="none" xmlns="http://www.w3.org/2000/svg">
<path d="M9.22511e-10 18.089C9.22511e-10 18.187 0.0389362 18.281 0.108243 18.3503C0.177549 18.4196 0.271549 18.4585 0.369563 18.4585C0.467578 18.4585 0.561578 18.4196 0.630884 18.3503C0.700191 18.281 0.739127 18.187 0.739127 18.089V0.73478H14.5595C14.6569 0.73478 14.7504 0.696074 14.8193 0.627178C14.8882 0.558281 14.9269 0.464837 14.9269 0.367403C14.9269 0.269969 14.8882 0.176525 14.8193 0.107628C14.7504 0.0387316 14.6569 2.60356e-05 14.5595 2.60356e-05H0.37175C0.323139 -0.000552712 0.274896 0.00852257 0.229818 0.0267257C0.18474 0.0449288 0.143722 0.0718979 0.109144 0.10607C0.0745651 0.140242 0.0471127 0.180937 0.0283774 0.225796C0.00964212 0.270656 -3.44413e-06 0.318788 9.22511e-10 0.367403V18.089Z" fill="#2F3843"/>
<path d="M14.1914 18.0889C14.1914 18.187 14.2303 18.281 14.2997 18.3503C14.369 18.4196 14.463 18.4585 14.561 18.4585C14.659 18.4585 14.753 18.4196 14.8223 18.3503C14.8916 18.281 14.9305 18.187 14.9305 18.0889V0.734759H15.018C15.1816 0.733601 15.3439 0.764906 15.4954 0.826862C15.6468 0.888818 15.7845 0.980196 15.9004 1.09571C16.0163 1.21122 16.1082 1.34857 16.1707 1.49982C16.2332 1.65106 16.265 1.8132 16.2645 1.97684V19.6984C16.2645 19.7958 16.3032 19.8893 16.3721 19.9582C16.441 20.0271 16.5344 20.0658 16.6318 20.0658C16.7293 20.0658 16.8227 20.0271 16.8916 19.9582C16.9605 19.8893 16.9992 19.7958 16.9992 19.6984V1.97684C16.9998 1.71708 16.9491 1.45976 16.8499 1.21966C16.7508 0.979556 16.6052 0.761402 16.4215 0.577721C16.2378 0.39404 16.0197 0.248449 15.7796 0.149308C15.5395 0.050167 15.2821 -0.000571754 15.0224 4.85994e-06H14.5588C14.4613 4.85994e-06 14.3679 0.0387104 14.299 0.107607C14.2301 0.176503 14.1914 0.269947 14.1914 0.367382V18.0889Z" fill="#2F3843"/>
<path d="M0.371094 17.7215H15.0224C15.2822 17.7209 15.5395 17.7717 15.7796 17.8708C16.0197 17.9699 16.2379 18.1155 16.4215 18.2992C16.6052 18.4829 16.7508 18.7011 16.85 18.9412C16.9491 19.1813 16.9998 19.4386 16.9993 19.6983C16.9998 19.9581 16.9491 20.2154 16.85 20.4555C16.7508 20.6956 16.6052 20.9138 16.4215 21.0975C16.2379 21.2811 16.0197 21.4267 15.7796 21.5259C15.5395 21.625 15.2822 21.6758 15.0224 21.6752H0.375467V20.9404C0.703482 20.9404 0.987762 20.8092 1.19332 20.5905C1.4166 20.3475 1.53863 20.0284 1.53445 19.6983C1.53812 19.3663 1.41448 19.0455 1.18894 18.8018C1.08408 18.6902 0.957309 18.6016 0.816569 18.5414C0.67583 18.4812 0.524166 18.4507 0.371094 18.4519V17.7215ZM15.0224 18.4563H1.85809C2.12675 18.8145 2.27111 19.2506 2.26921 19.6983C2.27111 20.1461 2.12675 20.5822 1.85809 20.9404H15.0224C15.1857 20.941 15.3475 20.9093 15.4984 20.8471C15.6494 20.7848 15.7866 20.6934 15.902 20.5779C16.0175 20.4625 16.1089 20.3253 16.1711 20.1744C16.2334 20.0234 16.2651 19.8616 16.2645 19.6983C16.2651 19.5351 16.2334 19.3733 16.1711 19.2223C16.1089 19.0714 16.0175 18.9342 15.902 18.8188C15.7866 18.7033 15.6494 18.6118 15.4984 18.5496C15.3475 18.4874 15.1857 18.4557 15.0224 18.4563ZM11.0294 2.4535H3.90491C3.83226 2.80741 3.6571 3.13212 3.40124 3.3872C3.14539 3.64228 2.82014 3.81645 2.46602 3.88802V14.5638C2.82014 14.6354 3.14539 14.8096 3.40124 15.0646C3.6571 15.3197 3.83226 15.6444 3.90491 15.9983H11.0338C11.1064 15.6444 11.2816 15.3197 11.5374 15.0646C11.7933 14.8096 12.1185 14.6354 12.4727 14.5638V3.8924C12.118 3.82052 11.7923 3.6457 11.5364 3.38978C11.2805 3.13387 11.1056 2.80821 11.0338 2.4535H11.0294ZM3.56815 1.71875H11.3618C11.5673 1.71875 11.7292 1.88057 11.7292 2.08613C11.7286 2.2316 11.7568 2.37574 11.8122 2.51025C11.8676 2.64476 11.9491 2.76697 12.052 2.86983C12.1548 2.9727 12.277 3.05418 12.4115 3.10958C12.546 3.16498 12.6902 3.19321 12.8357 3.19263C13.0368 3.19263 13.203 3.35445 13.203 3.56001V14.8962C13.203 14.9936 13.1643 15.0871 13.0954 15.156C13.0265 15.2249 12.9331 15.2636 12.8357 15.2636C12.6902 15.263 12.546 15.2912 12.4115 15.3466C12.277 15.402 12.1548 15.4835 12.052 15.5864C11.9491 15.6892 11.8676 15.8115 11.8122 15.946C11.7568 16.0805 11.7286 16.2246 11.7292 16.3701C11.7292 16.4675 11.6905 16.561 11.6216 16.6299C11.5527 16.6988 11.4592 16.7375 11.3618 16.7375H3.56815C3.47071 16.7375 3.37727 16.6988 3.30837 16.6299C3.23947 16.561 3.20077 16.4675 3.20077 16.3701C3.20135 16.2246 3.17312 16.0805 3.11772 15.946C3.06232 15.8115 2.98084 15.6892 2.87797 15.5864C2.77511 15.4835 2.6529 15.402 2.51839 15.3466C2.38388 15.2912 2.23974 15.263 2.09427 15.2636C1.99683 15.2636 1.90339 15.2249 1.83449 15.156C1.76559 15.0871 1.72689 14.9936 1.72689 14.8962V3.56001C1.72689 3.35445 1.89308 3.19263 2.09427 3.19263C2.23974 3.19321 2.38388 3.16498 2.51839 3.10958C2.6529 3.05418 2.77511 2.9727 2.87797 2.86983C2.98084 2.76697 3.06232 2.64476 3.11772 2.51025C3.17312 2.37574 3.20135 2.2316 3.20077 2.08613C3.20077 1.88057 3.36696 1.71875 3.56815 1.71875Z" fill="#2F3843"/>
<path d="M7.46698 5.85601C7.28436 6.00523 7.08815 6.13702 6.88093 6.24962C6.71473 6.35022 6.55291 6.45081 6.41733 6.56889C6.34815 6.63215 6.2574 6.66658 6.16367 6.66511C5.98873 6.67823 5.81379 6.72197 5.63885 6.77007C5.42017 6.82693 5.20149 6.88379 4.93908 6.90128C4.91737 7.1367 4.87344 7.36953 4.80787 7.59667C4.76414 7.78036 4.71603 7.96405 4.70728 8.14774C4.7379 8.19147 4.62856 8.36204 4.5892 8.4014C4.47877 8.53822 4.38071 8.68458 4.29617 8.83876C4.18246 9.03557 4.06437 9.23237 3.89818 9.42481C4.06437 9.62162 4.18246 9.81843 4.2918 10.0109C4.38237 10.1757 4.48934 10.331 4.61107 10.4745C4.65043 10.4526 4.70728 10.7019 4.70728 10.7281C4.7204 10.9031 4.76414 11.078 4.81225 11.2573C4.86473 11.476 4.92596 11.6947 4.94345 11.9527C5.19712 11.9702 5.42017 12.0271 5.63447 12.0839C5.82253 12.1277 6.00622 12.1801 6.18991 12.1889C6.23365 12.1583 6.40421 12.2632 6.4392 12.3026C6.57041 12.4163 6.72786 12.5082 6.88093 12.6C7.07774 12.7137 7.27455 12.8274 7.46698 12.9936C7.66379 12.8274 7.8606 12.7137 8.05304 12.6C8.21771 12.5108 8.37302 12.4053 8.51663 12.2851C8.49039 12.2414 8.74405 12.1889 8.7703 12.1889C8.94524 12.1758 9.12018 12.1277 9.29512 12.0839C9.5138 12.0271 9.73247 11.9702 9.99489 11.9527C10.0124 11.6947 10.0692 11.4716 10.1261 11.2573C10.1698 11.0736 10.2179 10.8899 10.2311 10.7063C10.1961 10.6625 10.3054 10.4876 10.3448 10.4526C10.4567 10.3159 10.5562 10.1696 10.6422 10.0152C10.7734 9.78781 10.9046 9.56476 11.1145 9.34171C11.0726 9.30163 11.0345 9.2577 11.0008 9.21051C10.7843 8.92591 10.5582 8.64876 10.3229 8.37954C10.2596 8.31035 10.2252 8.2196 10.2267 8.12587C10.2136 7.95093 10.1698 7.77599 10.1261 7.59667C10.0692 7.378 10.0124 7.15932 9.99489 6.90128C9.73247 6.88379 9.5138 6.82693 9.29512 6.77007C9.11143 6.72197 8.92774 6.67386 8.74405 6.66511C8.6494 6.66077 8.56009 6.62003 8.49476 6.5514C8.36356 6.43769 8.21048 6.34584 8.05304 6.254C7.84556 6.14013 7.64933 6.00687 7.46698 5.85601ZM6.50481 5.61984C6.7366 5.48863 6.9684 5.34868 7.16521 5.11688C7.19979 5.06706 7.24617 5.02657 7.3002 4.99904C7.35424 4.9715 7.41425 4.95777 7.47488 4.95907C7.53551 4.96037 7.59488 4.97666 7.64768 5.00648C7.70049 5.03631 7.74509 5.07874 7.7775 5.13C7.96396 5.32877 8.18283 5.4944 8.42479 5.61984C8.59302 5.71554 8.75383 5.82372 8.90587 5.94348C9.1158 5.96534 9.29949 6.01345 9.48318 6.06156C9.73685 6.12717 9.99488 6.19277 10.301 6.1709C10.3564 6.16132 10.4133 6.16458 10.4672 6.18043C10.5211 6.19628 10.5707 6.2243 10.6121 6.26232C10.6535 6.30034 10.6856 6.34736 10.706 6.39975C10.7264 6.45215 10.7345 6.50851 10.7296 6.56452C10.6422 6.56015 10.8171 7.34738 10.8346 7.41298C10.8783 7.59667 10.9308 7.77599 10.9527 7.98154C11.1014 8.15648 11.3813 8.49762 11.5912 8.77753C11.7181 8.94809 11.823 9.11429 11.8843 9.24549C11.9264 9.32074 11.9408 9.40843 11.9248 9.49319C11.9088 9.57795 11.8635 9.65438 11.7968 9.70909C11.7224 9.66973 11.3157 10.3083 11.272 10.3826C11.1757 10.5444 11.0795 10.7063 10.9527 10.8681C10.9308 11.0736 10.8827 11.2573 10.8346 11.441C10.751 11.7052 10.714 11.982 10.7253 12.2589C10.735 12.3146 10.7317 12.3719 10.7156 12.4262C10.6995 12.4805 10.6711 12.5303 10.6325 12.5718C10.594 12.6133 10.5464 12.6454 10.4935 12.6654C10.4405 12.6855 10.3836 12.693 10.3273 12.6875C10.336 12.6044 9.54878 12.7749 9.48318 12.7924C9.29512 12.8405 9.1158 12.8886 8.91025 12.9105C8.7568 13.0305 8.59452 13.1386 8.42479 13.2342C8.15898 13.3722 7.92158 13.5592 7.72502 13.7852C7.68852 13.821 7.64494 13.8488 7.59709 13.8668C7.54923 13.8848 7.49814 13.8926 7.4471 13.8897C7.39605 13.8868 7.34617 13.8733 7.30065 13.8501C7.25512 13.8268 7.21495 13.7943 7.1827 13.7546C6.99372 13.5401 6.7669 13.3622 6.51355 13.2298C6.34246 13.1359 6.17871 13.0291 6.02372 12.9105C5.81816 12.8886 5.63885 12.8405 5.45516 12.7924C5.18956 12.7083 4.91129 12.6713 4.63293 12.6831C4.57754 12.6927 4.52069 12.6894 4.46676 12.6736C4.41283 12.6577 4.36325 12.6297 4.32185 12.5917C4.28044 12.5536 4.24832 12.5066 4.22794 12.4542C4.20757 12.4018 4.19949 12.3455 4.20433 12.2895C4.22184 12.0026 4.18626 11.715 4.09936 11.441C4.05563 11.2573 4.00314 11.0736 3.98128 10.8724C3.85007 10.7063 3.75823 10.5444 3.66201 10.3826C3.53516 10.1367 3.36644 9.91466 3.16343 9.72658C3.11653 9.69441 3.07775 9.65178 3.05013 9.60207C3.02252 9.55236 3.00682 9.49691 3.00427 9.4401C3.00173 9.38328 3.01241 9.32665 3.03547 9.27467C3.05854 9.22269 3.09336 9.17677 3.13718 9.14053C3.38648 8.94372 3.52643 8.70318 3.66201 8.47138C3.75823 8.30518 3.85444 8.14336 3.98128 7.98592C4.00314 7.78036 4.05125 7.59667 4.09936 7.41298C4.2087 6.98875 3.99877 6.31523 4.51047 6.18839C4.78601 6.12716 5.23211 6.11842 5.45078 6.05719C5.63885 6.01345 5.81816 5.96534 6.02372 5.94348C6.18554 5.81227 6.34736 5.71605 6.50481 5.61984ZM8.88838 8.83876L8.05741 8.00778H6.87656L6.04558 8.83876V10.0152L6.87656 10.8462H8.05741L8.88838 10.0152V8.83876ZM9.47443 8.2702C9.58377 8.44514 9.62313 8.51074 9.62313 8.68568V10.1683C9.62326 10.2171 9.61365 10.2655 9.59488 10.3105C9.5761 10.3556 9.54854 10.3964 9.5138 10.4307L8.46852 11.4716C8.43424 11.5064 8.39338 11.5339 8.34832 11.5527C8.30326 11.5715 8.25492 11.5811 8.20611 11.581H6.72786C6.72786 11.581 6.48294 11.4935 6.46544 11.476L5.42017 10.4263C5.38543 10.3921 5.35786 10.3512 5.33909 10.3061C5.32032 10.2611 5.31071 10.2127 5.31083 10.1639V8.68568C5.31083 8.68568 5.3983 8.44076 5.42017 8.42327L6.46544 7.378C6.49973 7.34325 6.54059 7.31569 6.58565 7.29692C6.6307 7.27814 6.67905 7.26854 6.72786 7.26866H8.20611C8.47727 7.26866 9.24701 8.06464 9.47443 8.2702ZM15.0244 20.0656C15.1219 20.0656 15.2153 20.0269 15.2842 19.958C15.3531 19.8891 15.3918 19.7957 15.3918 19.6982C15.3918 19.6008 15.3531 19.5074 15.2842 19.4385C15.2153 19.3696 15.1219 19.3309 15.0244 19.3309H6.20303C6.1056 19.3309 6.01215 19.3696 5.94326 19.4385C5.87436 19.5074 5.83566 19.6008 5.83566 19.6982C5.83566 19.7957 5.87436 19.8891 5.94326 19.958C6.01215 20.0269 6.1056 20.0656 6.20303 20.0656H15.0244Z" fill="#2F3843"/>
<path fill-rule="evenodd" clip-rule="evenodd" d="M8.05479 10.8462L8.88577 10.0153V8.83878L8.05479 8.00781H6.87831L6.04297 8.83878V10.0153L6.87831 10.8462H8.05479Z" fill="#F3FFFF"/>
</svg>
