<svg width="14" height="13" viewBox="0 0 14 13" fill="none" xmlns="http://www.w3.org/2000/svg">
<path id="Vector" d="M11.2309 8.35716C10.887 8.35972 10.5482 8.44168 10.2398 8.59688C9.93146 8.75207 9.66159 8.97647 9.45046 9.25323L5.2248 7.09894C5.27916 6.904 5.30824 6.70265 5.31132 6.50001C5.30824 6.29737 5.27916 6.09602 5.2248 5.90108L9.45046 3.74679C9.66159 4.02355 9.93146 4.24795 10.2398 4.40314C10.5482 4.55834 10.887 4.6403 11.2309 4.64286C11.6812 4.64286 12.1214 4.50671 12.4958 4.25163C12.8702 3.99655 13.162 3.63399 13.3343 3.20981C13.5066 2.78562 13.5517 2.31886 13.4639 1.86854C13.376 1.41823 13.1592 1.00459 12.8408 0.679933C12.5224 0.355275 12.1167 0.13418 11.675 0.0446067C11.2334 -0.0449663 10.7756 0.00100584 10.3596 0.17671C9.94358 0.352413 9.588 0.649957 9.33782 1.03171C9.08765 1.41347 8.95412 1.8623 8.95412 2.32143C8.9572 2.52407 8.98629 2.72543 9.04064 2.92036L4.81499 5.07465C4.60385 4.79789 4.33398 4.57349 4.02562 4.4183C3.71726 4.26311 3.37843 4.18115 3.03457 4.17858C2.43073 4.17858 1.85163 4.42316 1.42466 4.85851C0.997684 5.29386 0.757813 5.88433 0.757812 6.50001C0.757813 7.11569 0.997684 7.70616 1.42466 8.14151C1.85163 8.57686 2.43073 8.82144 3.03457 8.82144C3.37843 8.81887 3.71726 8.73692 4.02562 8.58172C4.33398 8.42653 4.60385 8.20213 4.81499 7.92537L9.04064 10.0797C8.91783 10.5486 8.94226 11.045 9.11051 11.499C9.27876 11.9531 9.58235 12.3419 9.9786 12.6109C10.3749 12.8799 10.8438 13.0155 11.3196 12.9986C11.7953 12.9817 12.2539 12.8132 12.6308 12.5167C13.0078 12.2203 13.2841 11.8109 13.421 11.346C13.5578 10.8811 13.5483 10.3842 13.3938 9.92506C13.2393 9.46597 12.9475 9.0678 12.5596 8.78656C12.1716 8.50532 11.7069 8.35514 11.2309 8.35716ZM11.2309 0.928574C11.5011 0.928574 11.7652 1.01026 11.9898 1.16331C12.2145 1.31636 12.3896 1.5339 12.4929 1.78841C12.5963 2.04292 12.6234 2.32298 12.5707 2.59317C12.518 2.86335 12.3879 3.11154 12.1968 3.30633C12.0058 3.50113 11.7624 3.63379 11.4974 3.68753C11.2324 3.74127 10.9577 3.71369 10.7081 3.60827C10.4585 3.50285 10.2451 3.32432 10.095 3.09526C9.94494 2.86621 9.86482 2.59691 9.86482 2.32143C9.86482 1.95202 10.0087 1.59774 10.2649 1.33653C10.5211 1.07532 10.8686 0.928574 11.2309 0.928574ZM3.03457 7.89287C2.76439 7.89287 2.50027 7.81118 2.27563 7.65813C2.05098 7.50508 1.87589 7.28755 1.7725 7.03303C1.66911 6.77852 1.64205 6.49847 1.69476 6.22828C1.74747 5.95809 1.87758 5.7099 2.06862 5.51511C2.25967 5.32031 2.50307 5.18766 2.76806 5.13391C3.03305 5.08017 3.30772 5.10775 3.55733 5.21318C3.80694 5.3186 4.02029 5.49712 4.1704 5.72618C4.3205 5.95523 4.40062 6.22453 4.40062 6.50001C4.40062 6.86942 4.25669 7.2237 4.00051 7.48491C3.74433 7.74612 3.39686 7.89287 3.03457 7.89287ZM11.2309 12.0714C10.9607 12.0714 10.6966 11.9898 10.4719 11.8367C10.2473 11.6837 10.0722 11.4661 9.96881 11.2116C9.86542 10.9571 9.83836 10.677 9.89107 10.4069C9.94378 10.1367 10.0739 9.88848 10.2649 9.69369C10.456 9.49889 10.6994 9.36624 10.9644 9.31249C11.2294 9.25875 11.504 9.28633 11.7536 9.39175C12.0033 9.49718 12.2166 9.6757 12.3667 9.90476C12.5168 10.1338 12.5969 10.4031 12.5969 10.6786C12.5969 11.048 12.453 11.4023 12.1968 11.6635C11.9406 11.9247 11.5932 12.0714 11.2309 12.0714Z" fill="#787D84"/>
</svg>
