<svg width="40" height="40" viewBox="0 0 40 40" fill="none" xmlns="http://www.w3.org/2000/svg">
<g id="sunrise 1">
<path id="Vector" d="M19.9993 12.4993C20.8327 12.4993 21.3327 11.8327 21.3327 10.9993V8.16602C21.3327 7.33268 20.8327 6.66602 19.9993 6.66602C19.166 6.66602 18.666 7.33268 18.666 8.16602V11.166C18.666 11.8327 19.166 12.4993 19.9993 12.4993Z" fill="#E5AC2E"/>
<path id="Vector_2" d="M31 16.332L33 14.332C33.5 13.832 33.5 12.832 33 12.332C32.5 11.832 31.5 11.832 31 12.332L29 14.332C28.5 14.832 28.5 15.832 29 16.332C29.5 16.9987 30.5 16.9987 31 16.332Z" fill="#E5AC2E"/>
<path id="Vector_3" d="M7.33268 25.666C7.33268 24.8327 6.66602 24.166 5.99935 24.166H2.99935C2.16602 24.166 1.66602 24.8327 1.66602 25.666C1.66602 26.4993 2.33268 27.166 2.99935 27.166H5.83268C6.66602 27.166 7.33268 26.4993 7.33268 25.666Z" fill="#E5AC2E"/>
<path id="Vector_4" d="M37.0007 24.166H34.1673C33.334 24.166 32.834 24.8327 32.834 25.666C32.834 26.4993 33.5006 27.166 34.1673 27.166H37.0007C37.834 27.166 38.334 26.4993 38.334 25.666C38.334 24.8327 37.6673 24.166 37.0007 24.166Z" fill="#E5AC2E"/>
<path id="Vector_5" d="M9 16.3346C9.5 16.8346 10.5 16.8346 11 16.3346C11.5 15.8346 11.5 14.8346 11 14.3346L9 12.168C8.5 11.668 7.66667 11.668 7 12.168C6.5 12.668 6.5 13.668 7 14.168L9 16.3346Z" fill="#E5AC2E"/>
<path id="Vector_6" d="M13.166 26.6667C12.9993 26.6667 12.9993 26 12.9993 25.5C12.9993 21.5 16.166 18.3333 19.9993 18.3333C23.8327 18.3333 26.9993 21.5 26.9993 25.5C26.9993 26 26.9993 26.8333 26.8327 26.8333H29.666C29.666 26.8333 29.8327 26.1667 29.8327 25.6667C29.8327 20 25.3327 15.5 19.9993 15.5C14.666 15.5 10.166 19.8333 10.166 25.5C10.166 26 10.166 26.8333 10.3327 26.8333H13.166V26.6667Z" fill="#E5AC2E"/>
<path id="Vector_7" d="M31 28.668H9V31.668H31V28.668Z" fill="#E5AC2E"/>
<path id="Vector_8" d="M15.5 26.668L20.1667 21.668L24.6667 26.668H15.5Z" fill="#E5AC2E"/>
</g>
</svg>
