<svg width="30" height="20" viewBox="0 0 30 20" fill="none" xmlns="http://www.w3.org/2000/svg">
<path d="M28.4167 8.33398H1.58333C0.708883 8.33398 0 9.04287 0 9.91732V10.084C0 10.9584 0.708883 11.6673 1.58333 11.6673H28.4167C29.2911 11.6673 30 10.9584 30 10.084V9.91732C30 9.04287 29.2911 8.33398 28.4167 8.33398Z" fill="#1E4D45"/>
<path d="M28.4167 16.666H1.58333C0.708883 16.666 0 17.3749 0 18.2494V18.416C0 19.2905 0.708883 19.9993 1.58333 19.9993H28.4167C29.2911 19.9993 30 19.2905 30 18.416V18.2494C30 17.3749 29.2911 16.666 28.4167 16.666Z" fill="#1E4D45"/>
<path d="M28.4167 0H1.58333C0.708883 0 0 0.708882 0 1.58333V1.75C0 2.62445 0.708883 3.33333 1.58333 3.33333H28.4167C29.2911 3.33333 30 2.62445 30 1.75V1.58333C30 0.708882 29.2911 0 28.4167 0Z" fill="#1E4D45"/>
</svg>
