<svg width="24" height="24" viewBox="0 0 24 24" fill="none" xmlns="http://www.w3.org/2000/svg">
<g id="twitter-alt 1">
<path id="Vector" d="M22.9904 3.94923C22.9906 3.7726 22.9439 3.59909 22.8551 3.44637C22.7663 3.29366 22.6387 3.1672 22.4852 3.07986C22.3316 2.99253 22.1577 2.94744 21.9811 2.94919C21.8045 2.95095 21.6315 2.99948 21.4797 3.08985C20.8944 3.43823 20.2642 3.70503 19.6067 3.88285C18.6677 3.07708 17.47 2.63615 16.2327 2.64066C14.8753 2.64222 13.5716 3.17125 12.5969 4.11604C11.6222 5.06083 11.0529 6.34742 11.0091 7.70414C8.33305 7.2774 5.9077 5.88066 4.19552 3.78028C4.09235 3.65511 3.9606 3.55659 3.81138 3.49303C3.66215 3.42946 3.49983 3.40271 3.3381 3.41503C3.17646 3.42834 3.02049 3.48082 2.88369 3.56794C2.74689 3.65506 2.63336 3.77419 2.55294 3.91503C2.14046 4.63484 1.90357 5.44179 1.86149 6.27034C1.8194 7.09889 1.97332 7.92568 2.31075 8.68358L2.3088 8.68553C2.15714 8.77893 2.03199 8.90969 1.9453 9.06528C1.85861 9.22087 1.8133 9.3961 1.81368 9.57421C1.81184 9.72114 1.82065 9.86801 1.84005 10.0137C1.94218 11.2719 2.49983 12.4497 3.40841 13.3262C3.34677 13.4436 3.30915 13.5721 3.29775 13.7042C3.28635 13.8364 3.30139 13.9694 3.342 14.0957C3.73811 15.3298 4.5805 16.3718 5.70431 17.0176C4.56255 17.4591 3.32973 17.613 2.11446 17.4658C1.88953 17.4376 1.66169 17.4866 1.4683 17.6049C1.27492 17.7232 1.12748 17.9037 1.05017 18.1168C0.97286 18.3299 0.970267 18.563 1.04282 18.7777C1.11537 18.9925 1.25875 19.1762 1.44946 19.2988C3.53955 20.645 5.97313 21.3607 8.45923 21.3604C11.2785 21.3921 14.0292 20.4912 16.2835 18.7978C18.5377 17.1044 20.1692 14.7135 20.924 11.997C21.2771 10.8137 21.4574 9.5855 21.4592 8.35059C21.4592 8.28516 21.4592 8.21778 21.4582 8.1504C21.9803 7.58733 22.3848 6.9257 22.6479 6.2043C22.911 5.48289 23.0275 4.71622 22.9904 3.94923ZM19.6838 7.16114C19.5186 7.35648 19.435 7.60794 19.4504 7.86329C19.4602 8.02829 19.4592 8.19429 19.4592 8.35059C19.4571 9.39413 19.3042 10.4319 19.0051 11.4316C18.3886 13.743 17.0142 15.7807 15.1022 17.2182C13.1901 18.6558 10.8509 19.4101 8.45923 19.3604C7.6001 19.3606 6.74394 19.2597 5.90845 19.0596C6.97386 18.7162 7.97004 18.1869 8.85083 17.4961C9.01305 17.3684 9.13178 17.1936 9.19071 16.9957C9.24965 16.7978 9.24591 16.5865 9.18 16.3908C9.11409 16.1952 8.98925 16.0247 8.82261 15.9028C8.65596 15.7809 8.45567 15.7135 8.24923 15.71C7.41806 15.697 6.62436 15.362 6.03536 14.7754C6.18478 14.7471 6.33322 14.7119 6.48068 14.6699C6.69669 14.6084 6.88572 14.476 7.01734 14.2941C7.14895 14.1121 7.2155 13.8911 7.20625 13.6667C7.197 13.4423 7.1125 13.2275 6.96636 13.057C6.82022 12.8865 6.62093 12.7701 6.4006 12.7266C5.91813 12.6313 5.46414 12.426 5.07391 12.1268C4.68368 11.8275 4.36772 11.4422 4.1506 11.001C4.33133 11.0256 4.51321 11.041 4.69552 11.0469C4.9121 11.0502 5.12411 10.9845 5.30089 10.8593C5.47767 10.7341 5.61006 10.556 5.67892 10.3506C5.7449 10.1434 5.7415 9.92025 5.66925 9.71512C5.59699 9.50999 5.45982 9.33401 5.27853 9.21387C4.83867 8.92084 4.47837 8.52329 4.22988 8.05683C3.9814 7.59036 3.85248 7.06955 3.8547 6.54103C3.8547 6.47463 3.85665 6.40822 3.86056 6.34279C6.10182 8.43304 9.00888 9.66524 12.0696 9.82228C12.2241 9.82837 12.3779 9.79927 12.5195 9.73718C12.6611 9.67509 12.7868 9.58164 12.8869 9.46388C12.9861 9.34498 13.0564 9.20469 13.0921 9.05404C13.1278 8.90339 13.1281 8.7465 13.0929 8.59572C13.0358 8.35708 13.0066 8.11259 13.006 7.8672C13.0069 7.01173 13.3472 6.19157 13.9521 5.58667C14.557 4.98176 15.3772 4.64153 16.2326 4.64063C16.6728 4.63945 17.1084 4.72953 17.5119 4.90518C17.9155 5.08082 18.2783 5.33823 18.5773 5.66114C18.6927 5.78522 18.8378 5.87773 18.999 5.92987C19.1602 5.98202 19.3321 5.99205 19.4982 5.95903C19.909 5.87909 20.3139 5.77142 20.7101 5.63677C20.4399 6.18974 20.0945 6.70272 19.6838 7.16114Z" fill="#3D5A80"/>
</g>
</svg>
