<svg width="24" height="16" viewBox="0 0 24 16" fill="none" xmlns="http://www.w3.org/2000/svg">
<path d="M23.9945 5.6389C24.0484 4.1584 23.7071 2.68898 23.0024 1.36707C22.5242 0.824662 21.8606 0.45862 21.1272 0.33273C18.0937 0.0715852 15.0476 -0.0354495 12.002 0.0120845C8.96757 -0.037607 5.93246 0.0659739 2.9096 0.322387C2.31196 0.425528 1.75889 0.691484 1.31788 1.0878C0.336678 1.9463 0.227656 3.41507 0.118633 4.65628C-0.0395445 6.88794 -0.0395445 9.12715 0.118633 11.3588C0.150174 12.0574 0.25981 12.7509 0.4457 13.4275C0.577153 13.9499 0.84311 14.4332 1.21976 14.8342C1.66377 15.2515 2.22972 15.5326 2.84419 15.641C5.19461 15.9162 7.5629 16.0303 9.93062 15.9823C13.7464 16.034 17.0934 15.9823 21.0509 15.6927C21.6804 15.591 22.2623 15.3095 22.7189 14.8859C23.0241 14.5962 23.2521 14.2416 23.384 13.8516C23.7738 12.7165 23.9653 11.5286 23.9509 10.3348C23.9945 9.75558 23.9945 6.25951 23.9945 5.6389ZM9.53814 10.9554V4.55284L15.9923 7.76965C14.1825 8.72124 11.7949 9.79696 9.53814 10.9554Z" fill="white"/>
</svg>
